<!-- Generated by IcoMoon.io -->
<svg version="1.1" xmlns="http://www.w3.org/2000/svg" width="1024" height="1024" viewBox="0 0 1024 1024">
<title></title>
<g id="icomoon-ignore">
</g>
<path fill="#000" d="M159.819 795.3c131.915 122.14 270.105 196.031 410.74 219.612 32.356 5.475 65.116 8.228 97.932 8.228 11.528 0 23.033-0.341 34.522-1.024 86.213-6.125 170.34-29.309 247.524-68.203l0.635-0.341c9.22-5.030 37.275-20.335 37.624-45.051 0.325-23.541-24.334-37.894-32.443-42.615-0.563-0.325-1.143-0.619-1.738-0.881-43.027-18.836-104.383-17.685-160.652-13.195-36.728-58.705-109.548-94.449-172.498-119.291-28.27-157.542-111.817-352.844-264.067-439.382-6.927-3.951-14.29-7.077-21.946-9.307-5.657-1.928-11.314-3.555-16.733-5.094l-4.57-1.317c-41.401-11.005-85.261-8.204-124.925 7.982-0.294-0.905-0.532-1.698-0.73-2.325-0.952-3.071-1.722-5.419-1.746-5.459-2.983-9.251-5.792-18.336-8.307-27.698-4.554-15.773-7.68-31.919-9.347-48.248-3.689-22.573 0.571-45.717 12.044-65.497 12.885-14.258 28.611-25.667 46.153-33.498 22.882-9.95 36.442-33.832 33.244-58.578-3.761-25.152-23.089-39.814-57.642-43.607-12.092-1-24.223 1.404-35.022 6.927-58.539 26.945-100.44 80.533-112.468 143.84-7.545 40.838-8.244 91.553 35.617 184.701-14.639 11.973-27.881 25.548-39.465 40.488-54.492 66.497-66.862 158.018-31.975 236.591 34.458 69.282 82.096 131.185 140.238 182.242zM127.686 333.519c-45.59-92.339-45.566-139.174-38.886-175.37 9.934-53.136 45.217-98.059 94.489-120.299 4.308-2.222 9.077-3.428 13.925-3.531 0.73 0 1.46 0.040 2.166 0.111 25.659 2.809 26.818 10.568 27.468 14.901 0.698 9.719-4.935 18.788-13.964 22.47-22.176 10.029-41.988 24.612-58.15 42.805-0.381 0.444-0.738 0.912-1.071 1.388-16.63 26.429-23.2 57.96-18.519 88.84 1.849 18.288 5.332 36.371 10.402 54.040 2.626 9.807 5.602 19.463 9.045 30.095l1.333 4.229c6.562 21.081 9.846 31.673 23.652 31.673 2.404 0 4.784-0.508 6.974-1.492 36.545-18.407 78.485-23.081 118.188-13.171l0.381 0.111c-13.869 32.403-15.662 77.010 23.525 132.28-35.95-2.063-69.798-17.638-94.751-43.607-8.87-10.91-21.415-18.209-35.284-20.534-6.736-0.413-13.052 3.293-15.987 9.37-43.741 88.379-74.907 114.094-82.683 112.452-0.182-0.048-17.868-8.989-17.995-107.041 11.735-14.488 25.318-27.373 40.409-38.33 6.776-4.864 9.029-13.917 5.332-21.391zM50.208 445.725c4.832 54.215 18.312 81.802 41.925 87.404 2.563 0.611 5.181 0.912 7.815 0.912 29.888 0 65.18-38.854 105.097-115.761 1.944 1.746 3.943 3.618 5.697 5.284 22.732 21.415 60.832 57.238 154.718 53.651 6.577-0.254 12.401-4.3 14.94-10.378 2.531-6.070 1.301-13.060-3.142-17.908-44.368-48.367-57.285-90.26-39.782-127.67 0.912 0.46 1.991 0.897 2.801 1.381 121.489 69.060 216.978 231.95 249.214 425.109 0.992 5.951 5.054 10.933 10.687 13.107 62.744 24.144 138.714 59.261 169.404 116.895 3.261 5.99 9.735 9.505 16.535 8.966 51.192-4.515 114.816-7.498 153.932 9.164 12.83 7.609 14.528 12.005 14.655 12.005-0.143 0.428-2.388 6.181-19.558 15.591-73.035 36.807-152.647 58.769-234.219 64.616-41.694 2.444-83.532 0.167-124.71-6.792-133.978-22.486-266.281-93.473-393.229-211.027-54.897-48.097-99.916-106.414-132.549-171.697-22.208-48.518-22.287-104.272-0.23-152.853z"></path>
<path fill="#000" d="M320.012 831.472c7.664 5.467 18.312 3.689 23.779-3.975 5.475-7.664 3.697-18.312-3.967-23.779-52.596-37.458-101.328-80.064-145.482-127.186-6.443-6.72-17.090-7.030-23.914-0.69s-7.292 16.979-1.055 23.898c45.709 48.811 96.171 92.934 150.639 131.732z"></path>
<path fill="#000" d="M417.024 889.876c38.854 19.367 79.676 34.514 121.759 45.178 1.357 0.341 2.745 0.516 4.142 0.508 8.601-0.016 15.837-6.443 16.876-14.98 1.047-8.537-4.435-16.511-12.774-18.606-39.719-10.076-78.24-24.382-114.912-42.654-8.41-4.023-18.503-0.532-22.628 7.831-4.134 8.363-0.778 18.495 7.53 22.732z"></path>
<path fill="#000" d="M1005.078 140.852c-8.744 0.96-17.217 1.603-25.501 2.237-51.961 3.959-101.035 7.696-154.964 80.786-31.332 42.464-68.837 51.509-93.584 45.876-17.114-2.785-30.817-15.686-34.625-32.602-4.911-26.278 17.178-58.888 59.070-87.229 5.252-3.555 8.093-9.719 7.387-16.019s-4.848-11.687-10.759-13.988c-121.045-47.010-232.346-50.954-313.45-11.060-52.81 25.199-92.299 71.813-108.469 128.043l-0.048 0.079v0.071l-0.008 0.032-0.056 0.111-0.016 0.095-0.087 0.262c-0.063 0.198 0 0.389-0.056 0.587-0.484 1.531-0.762 3.126-0.817 4.737 0.071 8.085 5.895 14.98 13.861 16.4 9.283 2.944 18.249 6.8 26.77 11.521 13.33 7.617 26.231 15.98 38.632 25.040 1.69 1.198 3.594 2.079 5.602 2.594 0.619 0.135 1.238 0.23 1.865 0.294 0.857 0.198 1.722 0.333 2.594 0.405 0.373 0 0.706-0.222 1.071-0.246 1.674-0.135 3.317-0.524 4.88-1.143 0.706-0.198 1.388-0.436 2.055-0.73 2.222-1.127 4.15-2.737 5.665-4.713 11.973-16.059 30.253-26.215 50.208-27.913-16.638 20.447-30.348 40.266-29.69 61.348 0 0.119-0.071 0.214-0.071 0.341v0.175l0.048 0.238c0.008 0.214-0.024 0.421-0.016 0.635 0.746 4.205 2.594 8.141 5.356 11.402 2.079 2.087 4.094 4.078 6.601 6.935 7.276 7.276 14.044 14.575 20.097 21.668 2.158 2.547 4.292 5.126 6.839 8.434 2.468 4.253 6.038 7.76 10.338 10.148 2.063 1.031 4.261 1.753 6.53 2.142l5.3 1.071c6.054 1.404 12.203 2.38 18.4 2.912 11.116 0.809 22.271 0.865 33.395 0.159 25.453-3.015 51.184-2.745 76.565 0.817 20.082 3.816 39.862 9.029 59.213 15.599l2.904 0.968c24.906 11.187 52.85 13.679 79.342 7.061 12.369-4.189 23.985-10.322 34.427-18.161-2.88 18.653-11.87 35.823-25.556 48.819-26.675 24.080-75.256 31.578-144.348 22.327-16.36-2.38-33.022 1.555-46.582 11.013-4.84 3.555-9.116 7.823-12.679 12.647-5.76 6.228-8.767 14.512-8.339 22.978 0.333 2.261 1.008 4.459 1.999 6.522 4.872 10.632 9.592 21.343 14.020 32.173 2.237 5.483 4.419 10.989 6.538 16.551 0.714 1.88 1.285 3.801 1.872 5.721 0.976 3.221 1.984 6.435 3.348 9.743 1.174 2.92 3.039 5.506 5.435 7.553 3.007 2.277 6.522 3.785 10.235 4.419 8.569 1.174 17.225 1.476 25.85 0.905 25.191-2.182 49.962-7.791 73.638-16.678-17.447 44.051-37.91 60.372-64.989 70.464l-7.49 0.508c-5.022 0.349-9.632 2.896-12.6 6.958-2.967 4.070-3.991 9.243-2.785 14.131 9.386 22.295 25.025 41.409 45.019 55.032 2.245 1.039 4.689 1.579 7.157 1.587 0.325 0 0.659-0.008 0.984-0.024 81.897-4.729 183.971-53.12 214.534-148.148 17.765-54.754 18.185-113.349 18.598-170.007 0.095-12.481 0.182-24.858 0.46-36.942 1.738-79.231 36.712-154.075 96.369-206.251 5.379-5.007 6.942-12.901 3.88-19.582s-10.061-10.648-17.368-9.838zM888.127 375.626c-0.294 12.377-0.381 24.937-0.476 37.592-0.389 54.072-0.809 109.976-16.955 159.772-23.866 74.257-106.692 118.069-178.362 124.179-4.983-4.689-9.585-9.759-13.774-15.17 43.845-19.233 69.171-54.778 88.538-122.64 1.769-6.197-0.111-12.853-4.848-17.217-4.745-4.364-11.536-5.681-17.566-3.412l-3.785 1.436c-29.722 12.988-61.181 21.557-93.386 25.445-3.499 0.23-7.014 0.27-10.521 0.119-0.682-2.222-1.388-4.419-2.214-6.57-2.206-5.8-4.483-11.568-6.823-17.305-3.856-9.418-7.91-18.733-12.131-28.103l0.468-0.627c1.468-1.96 3.213-3.697 5.189-5.141 6.466-4.277 14.298-5.974 21.954-4.761 80.58 10.775 136.786 0.706 171.729-30.832 28.222-25.477 41.147-63.196 39.536-115.316-0.214-6.8-4.443-12.822-10.759-15.321-6.324-2.507-13.528-1.016-18.336 3.793l-0.547 0.579c-0.286 0.254-0.563 0.516-0.825 0.793-13.933 16.297-31.554 29.016-51.406 37.108-19.582 4.062-39.949 1.595-57.991-7.022l-2.975-0.992c-20.875-7.077-42.218-12.687-63.879-16.789-28.198-4.086-56.809-4.507-85.119-1.238-9.513 0.579-19.058 0.524-28.563-0.175-4.618-0.436-9.188-1.198-13.694-2.269l-1.777-0.357c-0.421-0.619-0.849-1.198-1.262-1.706-2.293-2.84-4.626-5.665-7.006-8.466-6.649-7.799-14.020-15.765-21.050-22.716-0.722-0.857-1.492-1.706-2.285-2.563 7.434-16.321 17.59-31.261 30.047-44.178 3.713-4.451 7.458-8.958 11.108-13.496 3.555-4.427 4.673-10.33 2.983-15.757-1.698-5.419-5.974-9.64-11.417-11.259-36.537-11.901-76.661-2.531-104.137 24.318-0.96-0.643-2.015-1.206-2.975-1.849-8.434-5.625-17.090-11.116-26.080-16.265-5.649-3.237-11.497-6.101-17.519-8.561-0.325-0.143-0.643-0.302-0.968-0.436l-0.452-0.198c15.742-40.711 46.479-73.844 85.888-92.608 66.14-32.546 156.614-31.745 257.133 1.801-36.95 32.308-54.231 68.512-47.955 102.153 6.3 30.253 30.174 53.754 60.522 59.578 35.196 8.053 87.523-3.134 128.646-58.864 38.87-52.675 71.075-61.57 111.5-65.489-47.193 54.953-73.852 124.575-75.439 196.999z"></path>
</svg>
