<!-- Generated by IcoMoon.io -->
<svg version="1.1" xmlns="http://www.w3.org/2000/svg" width="1024" height="1024" viewBox="0 0 1024 1024">
<title></title>
<g id="icomoon-ignore">
</g>
<path fill="#000" d="M383.91 578.579c109.453 0 198.499-89.046 198.499-198.499s-89.046-198.502-198.499-198.502-198.499 89.048-198.499 198.502 89.046 198.499 198.499 198.499zM383.91 220.293c88.105 0 159.785 71.68 159.785 159.787 0 88.105-71.68 159.785-159.785 159.785s-159.785-71.68-159.785-159.785c0-88.107 71.68-159.787 159.785-159.787z"></path>
<path fill="#000" d="M556.297 668.7c-1.149-0.745-2.381-1.362-3.68-1.851-50.806-25.477-108.106-39.849-168.706-39.849s-117.9 14.37-168.706 39.849c-1.299 0.489-2.531 1.106-3.68 1.851-121.779 62.744-205.255 189.776-205.255 335.943 0 10.69 8.667 19.357 19.357 19.357s19.357-8.667 19.357-19.357c0-120.272 62.979-226.1 157.682-286.272v286.272c0 10.69 8.667 19.357 19.357 19.357s19.357-8.667 19.357-19.357v-307.456c43.353-20.178 91.645-31.473 142.53-31.473s99.177 11.293 142.53 31.473v307.456c0 10.69 8.667 19.357 19.357 19.357s19.357-8.667 19.357-19.357v-286.272c94.703 60.172 157.682 165.998 157.682 286.272 0 10.69 8.667 19.357 19.357 19.357s19.357-8.667 19.357-19.357c0.002-146.167-83.473-273.199-205.255-335.943z"></path>
<path fill="#000" d="M904.266 6.354c-99.286-26.563-201.667 32.607-228.227 131.888-31.204 116.632 34.405 236.798 147.345 275.019l0.252 591.391c0.005 10.688 8.67 19.348 19.357 19.348 0.002 0 0.005 0 0.007 0 10.692-0.005 19.355-8.674 19.35-19.367l-0.259-605.742c-0.005-8.759-5.892-16.425-14.356-18.692-101.038-27.030-161.282-131.085-134.296-231.953 21.044-78.661 102.163-125.542 180.821-104.493 60.867 16.282 97.14 79.050 80.855 139.917-12.476 46.629-60.554 74.419-107.196 61.946-35.242-9.427-56.245-45.773-46.816-81.015 6.99-26.13 33.926-41.705 60.070-34.712 9.127 2.441 16.759 8.292 21.487 16.475 4.728 8.181 5.989 17.714 3.545 26.844-2.763 10.33 3.371 20.937 13.698 23.703 10.325 2.761 20.937-3.371 23.703-13.698 5.113-19.118 2.475-39.082-7.424-56.218-9.904-17.136-25.883-29.389-45.003-34.504-46.745-12.495-94.964 15.355-107.476 62.108-14.946 55.865 18.346 113.472 74.211 128.421 10.891 2.913 21.828 4.302 32.6 4.302 55.759-0.005 106.92-37.28 122.002-93.643 21.799-81.489-26.761-165.522-108.251-187.323z"></path>
</svg>
