<svg style="fill:#5e97dd; stroke: #fff; stroke-width: 17px;"  xmlns="http://www.w3.org/2000/svg" height="512" width="512"><path d="M271.846 310.003L241 310c-100.355 0-182 81.645-182 182 0 11.046 8.954 20 20 20s20-8.954 20-20c0-78.299 63.701-142 142-142l30.59.002c6.339.025 8.877 4.629 9.674 6.607.815 2.025 2.209 7.226-2.466 11.757L166.079 477.64c-7.931 7.688-8.127 20.351-.439 28.281 3.923 4.046 9.14 6.079 14.362 6.079 5.015 0 10.034-1.874 13.919-5.64L306.64 397.086c14.876-14.421 19.479-36.176 11.727-55.422-7.715-19.151-26.013-31.579-46.521-31.661zM253.984 270c-.339 0 .34.003 0 0z"/><path d="M424 88h-35v-6.333C389 36.636 352.364 0 307.333 0H200.667C155.636 0 119 36.636 119 81.667v52.134c0 74.548 61.11 135.648 134.984 136.199 53.168-.004 101.475-31.244 123.254-79.817 4.519-10.079.012-21.913-10.067-26.433a20.01 20.01 0 0 0-26.433 10.067C325.408 208.01 291.426 230 254 230c-51.982-.388-95-43.544-95-96.199V81.667C159 58.691 177.691 40 200.667 40h106.666C330.309 40 349 58.691 349 81.667V88H221c-11.046 0-20 8.954-20 20s8.954 20 20 20h203c11.046 0 20-8.954 20-20s-8.954-20-20-20zm-75 424h-53c-11.046 0-20-8.954-20-20s8.954-20 20-20h53c11.046 0 20 8.954 20 20s-8.954 20-20 20zm104-20c0-55.104-24.565-106.64-67.398-141.394-8.577-6.962-21.173-5.648-28.132 2.929s-5.648 21.173 2.929 28.133C393.827 408.791 413 449.006 413 492c0 11.046 8.954 20 20 20s20-8.954 20-20z"/></svg>