<svg xmlns="http://www.w3.org/2000/svg" xmlns:xlink="http://www.w3.org/1999/xlink" viewBox="0,0,256,256" width="384px" height="384px" fill-rule="nonzero"><g transform="translate(53.33333,53.33333) scale(0.58333,0.58333)"><g fill="#ffffff" fill-rule="nonzero" stroke="none" stroke-width="1" stroke-linecap="butt" stroke-linejoin="miter" stroke-miterlimit="10" stroke-dasharray="" stroke-dashoffset="0" font-family="none" font-weight="none" font-size="none" text-anchor="none" style="mix-blend-mode: normal"><g transform="translate(-53.01934,128) rotate(-45) scale(10.66667,10.66667)"><path d="M10,3c-1.64497,0 -3,1.35503 -3,3h2c0,-0.56503 0.43497,-1 1,-1h8c0.56503,0 1,0.43497 1,1v8c0,0.56503 -0.43497,1 -1,1h-8c-0.56503,0 -1,-0.43497 -1,-1v-4h-2v4c0,1.64497 1.35503,3 3,3h8c1.64497,0 3,-1.35503 3,-3v-8c0,-1.64497 -1.35503,-3 -3,-3zM6,7c-1.64497,0 -3,1.35503 -3,3v8c0,1.64497 1.35503,3 3,3h8c1.64497,0 3,-1.35503 3,-3h-2c0,0.56503 -0.43497,1 -1,1h-8c-0.56503,0 -1,-0.43497 -1,-1v-8c0,-0.56503 0.43497,-1 1,-1h8c0.56503,0 1,0.43497 1,1v4h2v-4c0,-1.64497 -1.35503,-3 -3,-3z"></path></g></g></g></svg>