<svg xmlns="http://www.w3.org/2000/svg" width="1023.402" height="1061.16" viewBox="0 0 1023.402 1061.16">
  <path style="fill:#555;  stroke: #fff; stroke-width: 8px;" d="M679.184,40.779v2l6.009,1v1h4v1h3v1h4v1h2v1l9.012,2v1h2v1l6.008,1v1h2v1h3v1h2v1h3v1l5.006,1v1h2v1h3v1h2v1h2v1h2v1h3v1l4.006,1v1h2v1h3q0.5,1,1,2h3q0.5,1,1,2h3l1,2h3l1,2h3l1,2h3q0.5,1,1,2h2v1h2l2,2h2l1,2,6.008,2,1,2,6.008,2v1l3,1q0.5,1,1,2l6.008,2,1,2h2v1l3,1q0.5,1,1,2h2q0.5,1,1,2h2q0.5,1,1,2h2q0.5,1,1,2h2v1l3,1,1,2h2l2,3h2l1,2h2l2,3h2l2,3h2l2,3h2l2,3h2q0.5,1,1,2h1q0.5,1,1,2h2l4,5.006h2l5.007,6.006h2l5.007,6.007,3,1,12.016,13.014h2l3,4,9.012,8.009v2l8.011,7.008,5.007,6.006,2,1v2l6.008,5v2l6.008,5.006v2l4,3v2l4.006,3v2l2,1q0.5,1.5,1,3l4,3v2l3,2v2l3,2v2h1q0.5,1.5,1,3l2,1v2l3,2v2l2,1v2l2,1v2l2,1v2l2,1v2l2,1,1,4.005h1q0.5,1.5,1,3l2,1,1,4,2,1,1,4,2,1,1,4,2,1q1,3,2,6.006l2,1v3l2,1v2h1v2h1v2l2,2v2l2,1q0.5,2.5,1,5.006h1v2h1v2h1v2h1q1,3,2,6.007h1v3h1.01v2h1v2h1c0.33,1.334.67,2.669,1,4h1v3h1c0.34,1.335.67,2.67,1,4h1.01v3h1c0.33,1.335.66,2.67,1,4h1c0.67,3,1.33,6.007,2,9.01h1q0.51,2.5,1,5.006h1.01v2h1q0.99,4.5,2,9.009h1v2h1v4h1v2h1.01v4h1v3h1v4h1v2h1v5.006h1v2h1v5h1.01v3c0.74,2.022,4.01,9.762,3,13.014h-1v3h-1v2l-2.01,1v2h-1c-2.4,2.7-.02.306-3,2v1h-2v1h-5.01c-0.3.071-.29,1.309-2,1v-1h-5.01v-1c-7.28-2.178-7.45-8.109-10.01-15.016h-1.01v-5.006h-1q-0.5-3.5-1-7.008h-1v-3h-1v-4h-1v-2h-1v-4c-11.888-32.456-23.946-64-41.055-91.1l-2-6.006-2-1v-2h-1v-2l-2-1q-0.5-2-1-4l-2-1v-2h-1v-2l-2-1v-2l-2-1v-2l-2-1v-2l-2-1v-2h-1l-1-3-2-1v-2l-2-1v-2l-2-1q-0.5-1.5-1-3l-3-2v-2l-2-1v-2l-4-3-1-3-2-1v-2l-4.006-3v-2l-4-3v-2l-4.006-3v-2l-7.009-6.006c-6.5-8.983-14.3-16.3-22.03-24.026l-8.011-9.01h-2l-11.015-12.013h-2l-4-5.006h-2l-5.007-6.006h-2l-3-4h-2q-1.5-2-3-4h-2l-2-3h-2l-2-3h-2l-2-3h-2l-2-3h-2v-1l-3-1q-0.5-1-1-2h-2l-2-3h-2l-1-2h-2l-1-2-3-1v-1h-2v-1h-2l-1-2-4-1v-1l-3-1q-0.5-1-1-2l-4.006-1q-0.5-1-1-2l-4.006-1q-0.5-1-1-2h-2v-1h-2l-2-2h-2q-0.5-1-1-2h-2l-2-2h-2v-1h-2v-1h-2v-1l-4-1q-0.5-1-1-2h-3l-1-2h-3v-1h-2v-1l-4-1v-1h-3q-0.5-1-1-2h-3v-1h-2v-1l-4.006-1v-1l-18.024-6.007v-1h-2v-1l-6.008-1v-1h-2v-1h-3v-1h-3v-1h-3v-1l-7.009-1v-1l-5.007-1c0.822,3.49,3.079,5.1,4,8.009,2,6.28-3,11.21-4,15.016-3.17.8-4.737,3.181-7.009,4H658.156c-1.592-2.44-1.027-.6-3-2q-0.5-1-1-2l-3-1v-2l-6.009-5.005v-2l-6.008-5.005v-2l-5.006-4v-2l-6.009-5.005v-2l-4-3v-1l-2-1v-2l-5.007-4v-2h-1c-1.591-2.961-1.931-6.561-2-11.012h1v-3h1v-2h1l1-3,3-1v-1h2q0.5-1,1-2h3v-1h2v-1l4-1v-1h3v-1l4.006-1v-1h3v-1h2v-1h2v-1l6.008-2v-1h3v-1h2v-1h3v-1l4-1v-1h2v-1h3l1-2h10.013c2.184,2.989,1.433.414,4.006,2q1.5,2,3,4h1C696.052,26.016,689.351,38.42,679.184,40.779ZM959.564,538.32c-3.171.8-4.737,3.181-7.01,4h-9.012c-1.547-1.8-4.314-2.352-6.008-4l-5.007-7.007q-0.5-15.015-1-30.033h-1q-0.5-8.009-1-16.017h-1q-1-9.51-2-19.021c-3.229-10.7-5.445-23.007-9.012-33.036v-4h-1v-3h-1v-4h-1v-2h-1v-4h-1v-2h-1v-4h-1v-2h-1v-4h-1v-2h-1v-3h-1v-2h-1v-2l-9.012-6.006h-2l-1-2-4-1-1-2h-2l-2-2h-2v-1h-2v-1h-2v-1h-2v-1h-2v-1l-4-1q-0.5-1-1-2h-3v-1h-2v-1l-4-1v-1h-3q-0.5-1-1-2h-3q-0.5-1-1-2h-3v-1h-2v-1h-3v-1l-4.006-1v-1h-3v-1l-4-1v-1h-3v-1h-2v-1l-6.008-1v-1h-2v-1h-3v-1l-6.008-1v-1h-2v-1l-5.006-1v-1h-4.006v-1h-2v-1H794.34v-1h-2v-1h-4v-1h-3v-1h-4v-1h-2v-1h-4.006v-1h-3v-1l-7.009-1v-1l-7.01-1v-1l-12.016-2c-5.148-1.746-10.252-3.74-17.023-4.005a38.534,38.534,0,0,0,2,13.015h1l1,11.012h1q-0.5,1.5-1,3h1v10.011h-1l-1,5.005-5.007,4v1c-2.706,1.761-7.524,1.992-12.016,2-1.792-1.967-1.968-.839-4-2v-1h-2c-1.833-1.257-2.776-4.065-4-6.006h-1v-4c-1.977-2.3-.787-6.866-2-10.011h-1v-2h-1v-7.008h-1v-1c0.266-.587,1.464-0.087,1-2h-1q-1.5-10.011-3-20.022c-2.615-1.384-1.7-1.771-6.008-2v-1H683.19v-1l-13.018-1v-1h-5.007v-1h-9.012v-1h-6.008v-1H640.132v-1h-7.01v-1H622.107v-1l-14.019-1H597.073v-1H585.057v-1h-30.04v-1h-8.011c-1.593,4.338-1,12.1-1,18.02v36.039c2.409,3.442-3.04,10.582-4,14.015-3.171.8-4.737,3.182-7.01,4h-9.012c-1.736-1.978-2.334-.848-4-2l-6.008-7.008v-2h-1v-3h-1q0.5-28.029,1-56.061c-3.32-1.758-4.373-2.061-10.013-2-4.581,3.84-22.9-1.028-30.041,1v1l-17.023,1H447.872v1h-9.013v1H426.843c-11.18,3.2-26.075,2.831-37.05,6.006h-8.011v1h-4v1c-4.528,1.377-9.094-.657-12.016,2h-1c-0.054,4.175-1.175,6.334-2,9.01V335.1h-1v4h-1q-0.5,5.507-1,11.012h-1v8.009h-1v4h-1q-0.5,6.505-1,13.014h-1l-1,14.015h-1v9.01h-1v7.007h-1v10.011h-1V423.2h-1v12.013h-1q-0.5,6.507-1,13.014v11.012h-1v14.015c-1.55,5.449.718,14.972-1,21.023-2.386,8.395-.879,21.9-1,32.035,7.86,2.87,22.31,1,32.043,1h68.092c2.2-1.983,16.467-1.09,21.029-1,2.459,3.573,7.636,3.276,9.012,8.009,3.1,2.594,3.126,7.12,3,13.014-1.8,1.547-2.352,4.313-4,6.007l-7.01,5H343.731v33.036c1.356,4.869-.533,13.515,1,19.021h1v15.016h-1q-0.5,2.5-1,5c-2.44,1.36-3.309,3.83-5.007,5.006-1.672,1.158-2.3-.017-4,2-5.928.091-8.778-1.115-13.018-2l-4-5.006h-1q-0.5-2.5-1-5h-1V611.4h-1V593.38c-2.5-8.93-.989-23.334-1-34.037-4.593-1.672-12.831-1-19.026-1H128.44a12.711,12.711,0,0,0-1,5c2.793,3.319-.387,11.134,1,16.018h1v9.01h1v8.008h1v7.008h1V610.4h1v5h1v5.006h1v6.006h1q1.5,8.508,3,17.019h1q0.5,3.5,1,7.007h1v3h1v4h1v3h1v4h1v2h1v4h1v2h1v4h1q0.5,2.5,1,5h1v2h1v4h1v2l9.012,6.006h2l1,2,6.008,2,1,2h2l2,2h2v1h2v1h2l1,2h3q0.5,1,1,2h3q0.5,1,1,2h3v1h2v1h2v1l6.008,2v1h3v1h2v1l6.008,2v1h3v1h2v1h3v1h2v1l5.007,1v1h3v1h2v1h3v1h2v1l9.012,2v1h2v1h4v1h2v1h4v1h2v1h4v1h2v1h4v1h2v1h4.006v1h3v1h4c7.672,2.752,17.115,5.338,25.034,8.009l9.012,1v1l10.014,2c-0.1-4.44-1.1-6.934-2-10.011v-7.008h-1v-4h-1q-0.5-5.505-1-11.012h-1v-9.01h-1v-5h-1l-1-14.015h-1v-7.008c-0.139-1.689-1-2-1-2-1.081-5.082,4.177-12.334,7.009-14.015,1.9-2.014.731,0.058,3-1v-1h2v-1c6.9-2.391,10.99,2.89,15.02,4,0.559,2.318.891,2.416,2,4h1l1,7.008h1v9.009h1l1,14.016h1q0.5,6.505,1,13.014h1q0.5,6.006,1,12.013h1v4h1v7.008h1v4h1v6.007h1c1.044,3.19-.041,5.868,2,8.008v1c3.624,0.083,5.647,1.275,8.01,2h7.01v1h5.007v1H396.8c11.514,3.365,28.4-.538,29.039,14.015h1c0.882,1.57-1.474,7.494-2,8.009a7.585,7.585,0,0,1-2,4h-1v2l-2,2c-5.923,4.26-12.324,2.65-20.027,2H387.79v-1c-4.141-1.467-8.9-1.829-14.019-2-0.845,1.135.127,0.145-1,1q0.5,2.5,1,5h1q0.5,3.5,1,7.008h1q0.5,4,1,8.008h1l1,7.008h1v3h1v4.005h1v2h1v4h1v3h1v4h1v2h1v4h1v2h1v4h1v2h1q1,4.5,2,9.01h1q0.5,2.5,1,5h1v2h1q1,4.5,2,9.009h1q0.5,2,1,4h1v2h1q0.5,2.5,1,5h1v3h1l1,4h1v2h1v2h1v3h1q1,3,2,6.006h1v2h1v2h1c1.843,3.432,1.838,6.965,5.006,9.01v1l6.009,1v1h4v1h4v1h4.006v1c3.627,1.165,6.565-.318,9.012,2,1.507,1.687,1,5.826,1,9.01v22.024c-6.347-.088-12.141-2.408-17.023-4l-9.012-1v-1h-4v-1h-3v-1l-10.014-2v-1h-5.007v-1h-2v-1h-3v-1h-3v-1h-3v-1h-3v-1h-4v-1h-2v-1h-3v-1l-5.007-1v-1h-2v-1h-3v-1h-2v-1h-3v-1h-2v-1h-3v-1l-4-1v-1l-5.007-1v-1h-2v-1h-2v-1h-2v-1h-2v-1h-2v-1h-2v-1h-2v-1h-2v-1h-2v-1h-2v-1h-2l-2-2h-2l-1-2-6.008-2-1-2-6.008-2-1-2h-2l-2-2h-2q-0.5-1-1-2h-2q-0.5-1-1-2h-2v-1l-3-1q-0.5-1-1-2h-2l-1-2h-2v-1l-3-1q-0.5-1-1-2h-2l-2-3h-2v-1l-3-1q-0.5-1-1-2h-2l-3-4h-2q-1.5-2-3-4h-2l-2-3h-2q-1.5-2-3-4h-2l-6.008-7.008h-2l-6.008-7.008h-2l-10.014-11.012-17.023-16.017v-2l-7.009-6.007v-2l-7.01-6.007v-2l-2-1-1-3-4.005-3v-2l-4-3v-2l-3-2v-2l-3-2v-2h-1q-0.5-1.5-1-3l-2-1v-2l-3-2v-2l-2-1q-0.5-1.5-1-3h-1v-2l-2-1q-0.5-2-1-4l-2-1v-2l-2-1v-2l-2-1v-2h-1v-2l-2-1-2-6.006-2-1q-1-3-2-6.007l-2-1v-3l-2-1v-3l-2-1v-3l-2-1q-0.5-2-1-4h-1l-1-4h-1v-3h-1v-2h-1l-2-6.007h-1q-0.5-2.5-1-5h-1v-2h-1v-3h-1v-2h-1q-0.5-3-1-6.006h-1l-1-5.006h-1v-2h-1v-3h-1v-2h-1v-4h-1v-2h-1v-4h-1v-2h-1v-4h-1v-2h-1v-5h-1v-2h-1v-5h-1v-3h-1q-0.5-3.5-1-7.008h-1v-5h-1q-0.5-4.5-1-9.01h-1v-4h-1q-0.5-5.5-1-11.012h-1l-1-12.013h-1l-2-26.028h-1V566.351c-2.141-7.719-2.191-39.363,0-47.051V503.282h1q0.5-8.508,1-17.018h1v-8.009h1v-6.007h1v-6.006h1q0.5-5.505,1-11.012h1v-4h1q0.5-4.5,1-9.009h1V437.21h1v-3h1v-5h1v-2h1v-5h1v-2h1v-5.006h1v-2h1v-4h1v-2h1v-4h1v-2h1v-4h1v-2h1v-4h1v-2h1v-3h1q0.5-2.5,1-5.006h1v-2h1v-3h1q0.5-2,1-4h1v-3h1l1-4h1v-2h1v-3h1q1-3,2-6.006h1v-2h1v-2h1v-2h1v-2h1v-2l2-2v-2l2-1v-3l2-1,2-6.006,2-1q1-3,2-6.006l2-1q0.5-2,1-4l2-1q0.5-2,1-4l2-1v-2l2-1v-2h1l1-3,2-1v-2l2-1v-2l3-2v-2l2-1v-2l2-1v-2l3-2v-2l3-2v-2l4-3v-2l4.005-3v-2l4.006-3v-2l7.009-6.007v-2l5.007-4,2-3h1v-2l6.008-5c4.833-4.834,10.437-14.506,19.026-15.017v-1c1.36-.768,10.335,1.6,11.015,2q0.5,1,1,2h2a9.323,9.323,0,0,0,2,4h1q0.5,6.507,1,13.014h-1c-1.517,6.132-7.145,9.145-11.015,13.014l-5.007,6.007-3,2v2l-10.013,9.01v2l-5.007,4v2l-5.007,4v2l-2,1q-0.5,1.5-1,3l-4,3v2l-2,1v2l-4.005,3v2l-2,1q-0.5,1.5-1,3h-1v2l-2,1v2l-2,1v2l-2,1v2l-2,1q-0.5,2-1,4l-2,1v2l-2,1-1,4c-1.741,3.146-3.4,3.056-4.005,8.009h1v-1h3l1-2h3q0.5-1,1-2h3v-1h2v-1l4-1v-1h3v-1h2v-1h2v-1h2v-1h3v-1h2v-1l5.007-1v-1l6.008-1v-1l4-1v-1l6.009-1v-1h2v-1l9.012-2v-1h2v-1H249.6v-1h2v-1h4.006v-1h2v-1h4.006v-1h2v-1h4v-1h3v-1h4v-1h2v-1h5.007v-1h2v-1h5.006v-1h3v-1l7.01-1v-1h5.007a287.529,287.529,0,0,1,35.047-9.01c2.729-7.867,4.4-17.44,7.01-25.027q0.5-4,1-8.009h1l1-7.007h1v-3h1v-4h1v-2h1v-4h1v-3h1v-4h1v-2h1v-4h1v-2h1v-4h1v-2h1v-4.005h1v-2h1q1-4.5,2-9.01h1v-2h1v-3h1v-2h1q0.5-2.5,1-5.006h1v-3h1v-2h1v-3c2.1-4.736,5.278-8.716,6.008-15.017h-1c-2.3,2.483-2.228.734-5.007,2v1h-2v1l-4,1v1h-3v1l-4,1v1h-2v1h-2v1h-2v1h-2v1h-2v1h-2v1h-2v1h-2v1h-2v1l-4,1-1,2h-3q-0.5,1-1,2l-6.008,2v1l-3,1-1,2-4,1q-0.5,1-1,2l-4.006,1q-0.5,1-1,2h-2l-1,2h-2l-1,2h-2q-0.5,1-1,2h-2q-0.5,1-1,2h-2v1c-3.4,1.858-6.685,1.9-12.016,2a16.7,16.7,0,0,0-7.01-4,8.341,8.341,0,0,0-2-4h-1v-2h-1V193.945l5.007-7.007h2l1-2h2l2-3h2q0.5-1,1-2l3-1v-1h2q0.5-1,1-2l4.006-1q0.5-1,1-2l4-1,1-2,4-1,1-2,6.008-2q0.5-1,1-2l6.008-2q0.5-1,1-2h3q0.5-1,1-2h3q0.5-1,1-2l4.006-1v-1l4-1v-1h3v-1h2v-1h2v-1h2v-1l6.008-2v-1h3v-1h2v-1h3v-1l5.007-1v-1h2v-1h3v-1h2v-1h3v-1h2v-1h4.006v-1h2v-1H391.8v-1h2v-1h4v-1h2v-1h5.006v-1h2v-1h4.006v-1h3v-1l7.009-1v-1h5.007v-1h3v-1h5.007v-1h5.006v-1h4.006v-1h5.007v-1h6.008c7.616-2.257,18.171-2.738,26.035-5h12.016v-1l37.05-1c13.16,0,28.607-.985,39.053,2h11.015v1h7.01v1h9.012v1h6.008v1h5.007v1h6.008v1H617.1v1h5.007v1h4.006v1h5.006v1h3v1h5.006v1h3v1l7.01,1v1h5.007v1h2v1h4.006v1h2v1h4.006v1h2v1h4v1h2v1h4v1h2v1h3v1h2v1h3v1h2v1l5.007,1v1h3v1h2v1h3v1l6.008,2v1h2v1h3v1l6.008,2v1h2v1h2v1h2v1h2v1h2l2,2h2q0.5,1,1,2h3l1,2,6.008,2,1,2,3,1v1h3v1l3,1,1,2,4,1q0.5,1,1,2h2v1l3,1,1,2h2l1,2h2l1,2h2v1l3,1,1,2h2l2,3h2l2,3h2l1,2h2q1.5,2,3,4h2l3,4h2l3,4.005h2q2.5,3,5.007,6.006h2l6.008,7.008h2l11.015,12.013c6.982,6.984,14.132,12.858,20.027,21.023l5.007,4v2l7.009,6.007v2l2,1q0.5,1.5,1,3l4.006,3v2l4,3v2l3,2v2l3,2v2h1q0.5,1.5,1,3l2,1v2l3,2v2l2,1,1,3h1v2l2,1q0.5,2,1,4h1q0.5,1.5,1,3l2,1q0.5,2,1,4l2,1q1,3,2,6.006l2,1q1,3,2,6.007l2,1v2l2,2v2h1v2h1v2h1v2h1v2h1v2l2,2v2l2,1v3h1v2h1l1,4h1v3h1v2h1q0.5,2,1,4h1v3h1v2h1v3h1v2h1q0.5,2.5,1,5.006h1v3h1v2h1v4h1v2h1v4h1v2h1v4h1v2h1v4h1v3h1v4h1v3h1v3h1v4h1v4h1v4h1v4h1l1,9.01h1v5c1.395,4.48,2.67,11.519,4.006,16.018v8.008h1v7.008h1q0.5,9.009,1,18.019c0.7,2.475,2.3,20.452,1,24.027C962.739,533.59,960.366,535.148,959.564,538.32ZM420.835,154.9q-0.5,1.5-1,3h-1v3l-2,1v3l-2,1v3l-2,1v3h-1v2h-1v2h-1q-1,3-2,6.006h-1v3h-1v2h-1v3h-1q-0.5,2-1,4h-1v3h-1v2h-1v3h-1v2h-1v3h-1v2h-1q-1,4.5-2,9.01h-1v2h-1v4h-1v2h-1v3h-1q-1.5,6.505-3,13.014h-1v2h-1v4h-1v3h-1q-0.5,3.5-1,7.007h-1l-1,7.008h-1v4c-1.834,5.1-3.825,9.778-4.006,17.019a874.692,874.692,0,0,1,140.19-13.014c2.909-7.976,1-30.414,1-41.045v-92.1c-2.655-1-6.953-1.043-11.015-1-3.77,3.149-16.191.323-22.029,2-7.571,2.177-17.7,2.8-25.034,5h-6.008v1H446.87v1l-9.012,1v1h-5.007v1l-8.01,1v1ZM546,274.033h11.015v1h29.04v1h13.017v1H614.1v1h9.013v1h13.017v1l17.023,1v1h5.007v1l15.02,1v1h7.01v1c2.493,0.722,4.092.214,6.008,1v-1h1v-3c-1.681-2.014-.981-5.294-2-8.008h-1v-4h-1v-4h-1v-4h-1v-3h-1v-3h-1v-4c-9.27-25.406-16.989-52.473-29.039-75.082v-2h-1v-2h-1v-3h-1q-0.5-2-1-4h-1q-0.5-2-1-4l-2-1v-3l-2-1c-1.388-2.023.459-1.43-2-3-2.624-2.5-4.271-.735-8.011-2v-1h-3v-1h-5.007v-1h-3v-1H614.1c-6.444-2.01-15.364-3.064-22.029-5h-7.01v-1h-7.009v-1H567.033c-5.522-1.569-13.125-1.916-20.027-2v1h-1V274.033ZM682.188,169.919c0.086,2.554.1,3.52,1,5.006h1l1,5h1v3h1v2h1v3h1q0.5,2.5,1,5h1v2h1v3h1v2h1v3h1v2h1v4h1v2h1q1,4.5,2,9.01h1v2h1v4h1v3h1v3h1v3h1v3h1v3h1v4h1v3h1v3h1v4h1v3h1l1,7.008h1v5h1v3h1v5h1q1.5,7.507,3,15.016c4.147,0.255,7.837,1.957,11.015,3h5.007c7.365,2.432,16.706,4.473,24.032,7.007H765.3v1h4v1h3v1h4.006L839.4,327.09v1h2v1h3v1l4,1v1h3v1l4.006,1v1h3v1h2v1h3q0.5,1,1,2h3v1l9.012,3v1c1.422,0.867,1.729.687,4.006,1-0.272-2.246-.088-2.646-1-4h-1v-2l-2-1v-3l-2-1v-2l-2-1v-2l-2-1v-2l-2-1q-0.5-2-1-4l-2-1v-2l-2-1v-2l-3-2v-2h-1l-1-3-2-1v-2l-3-2v-2l-4-3-1-3-2-1v-2l-2-1-1-3-6.008-5.006v-2l-7.009-6.006v-2l-19.026-18.02L799.347,242h-2l-5.007-6.007h-2l-5.007-6.006h-2q-0.5-1-1-2l-3-1-3-4h-2l-3-4h-2q-0.5-1-1-2l-3-1v-1h-2l-2-3h-2l-1-2-3-1v-1h-2l-1-2h-2l-1-2h-2l-1-2h-2q-0.5-1-1-2h-2v-1h-2l-1-2-4-1q-0.5-1-1-2l-6.009-2q-0.5-1-1-2h-2l-2-2h-2v-1h-2v-1h-2l-1-2h-3l-1-2-9.012-3v-1h-2v-1h-2v-1l-6.008-2v-1h-3C686.55,171.741,686.392,170.416,682.188,169.919ZM331.715,327.09c-6.309.081-12.195,2.337-17.023,4.005l-12.017,2v1h-3v1l-7.009,1v1l-7.01,1v1h-4v1h-3v1h-4.006v1h-2v1h-4.006v1h-2v1h-4.006v1h-2v1h-4v1h-2v1h-4.005v1h-2v1h-3v1h-2v1l-6.008,1v1h-3v1l-4,1v1l-5.007,1v1h-3v1h-2v1h-3v1l-4,1v1h-2v1h-3l-1,2h-3v1l-4.006,1v1h-2v1h-3q-0.5,1-1,2h-3q-0.5,1-1,2h-3l-1,2-4,1v1h-2v1h-2v1h-2l-2,2h-2q-0.5,1-1,2l-6.008,2-1,2h-2v1h-2q-0.5,1-1,2h-2v1c-2.709,1.718-1.866-.952-3,3h-1v4h-1v2h-1v3h-1v2h-1v4h-1v2h-1v4h-1v2h-1v4h-1v2h-1V431.2c-9.214,26.836-14.778,60.806-16.022,95.1,4.594,1.672,12.832,1,19.026,1H310.686c3.993-7.707,2.078-24.934,2-36.039,2.264-2.69.895-11.486,1-16.017v-4h1V456.231h1V442.216h1V432.205h1V420.192h1v-8.009h1V401.171h1v-7.008h1q0.5-7.006,1-14.015h1v-9.01h1v-5h1l1-13.014h1v-7.008C329.306,340.742,331.343,333.4,331.715,327.09Zm37.05,678.74c-0.632-4.64-5.291-9.125-3-16.018h1v-3h1a8.927,8.927,0,0,0,2-4l3-1v-1h2v-1l9.012-1v1h3l7.01,5v2l4,3v2l2,1v1l2,1v2l4.006,3v2l3,2.01v2l4,3v2q2,1.515,4.006,3.01v2l4,3v2.01l4.006,3v2c0.667,0.33,1.335.67,2,1,0.334,1.34.668,2.67,1,4.01h1c2.623,7.28-2.933,11.85-4,16.01-3.111.73-4.573,2.91-7.01,4.01h-3v1c-1.669.33-3.338,0.67-5.007,1v1c-1.335.34-2.67,0.67-4,1v1h-3v1h-2v1.01h-3v1h-2v1h-3v1h-2v1c-1.669.33-3.339,0.67-5.007,1v1h-3v1h-2v1h-3v1.01h-2v1h-3c-0.334.66-.667,1.33-1,2H360.754c-1.558-2.45-1.142-.61-3-2l-4.006-5.01h-1c-1.157-1.67.007-2.29-2-4v-9.01h1v-2.01h1v-2h1l1-3c3.677-.89,5.058-3.1,9.012-4v-2.01q-4.506-.99-9.012-2v-1h-2v-1h-4v-1h-2v-1h-3v-1h-2v-1.01h-3v-1q-2.5-.495-5.007-1v-1c-1.335-.33-2.67-0.67-4-1v-1h-3v-1c-1.335-.34-2.671-0.67-4.006-1v-1h-3v-1.01q-3-.99-6.008-2v-1c-1.669-.33-3.338-0.67-5.007-1v-1h-2v-1h-2v-1h-2v-1h-2v-1.01h-2v-1h-2v-1h-2v-1h-2v-1h-2v-1h-2l-2-2h-2q-0.5-1.005-1-2.01h-3c-0.334-.66-0.668-1.33-1-2l-6.008-2-1-2-6.008-2-1-2-4-1-1-2-4-1q-0.5-1-1-2l-4.006-1-1-2h-2v-1l-3-1-1-2h-2l-1-2h-2q-0.5-1-1-2h-2v-1l-3-1-1-2h-2l-2-3h-2l-2-3h-2q-0.5-1-1-2h-2l-2-3h-2q-1.5-2-3-4h-2l-2-3h-2l-2-3h-2l-5.007-6.006h-2l-3-4h-2q-3-3.5-6.008-7.007h-2v-1l-4.006-3L169.5,918.734h-2l-5.007-6.006-11.015-10.011v-2L139.455,889.7v-2l-5.007-4v-2l-6.008-5v-2l-4.006-3v-2l-4-3v-2l-4-3v-2l-4.006-3v-2l-2-1v-2l-2-1-1-3-3-2v-2l-2-1v-2h-1q-0.5-1.5-1-3l-2-1v-2l-3-2v-2l-2-1-1-3h-1l-1-4-2-1-1-4-2-1-1-3h-1l-2-6.007h-1l-1-3-2-1-1-4-2-2v-2l-2-1v-2l-2-2v-2h-1v-2h-1v-2l-2-1v-3l-2-1v-3l-2-1v-3l-2-1v-3l-2-1v-3h-1v-2h-1l-1-4h-1v-3l-2-1v-3h-1v-2h-1v-3h-1l-1-4h-1v-3h-1v-2h-1v-3h-1v-2h-1v-3h-1v-2h-1l-2-9.01h-1v-2h-1l-1-6.006h-1v-3h-1v-3h-1v-3h-1v-3h-1v-4h-1v-3h-1v-4h-1v-2h-1l-1-8.008h-1v-5.006h-1v-2h-1v-5.005h-1l-1-9.01h-1v-4h-1v-5h-1l-1-11.012h-1c-1.056-3.28-1.189-9.04,0-12.013h1v-3h1l4.005-5.006c1.675-1.157,2.281,0,4.006-2H36.315c1.684,2.055,2.325.841,4.005,2l5.007,6.007v2h1v5h1v4h1l1,10.011h1v6.006h1v3h1v6.007h1v3h1v5.006h1v2h1l2,12.013h1v3h1v4h1v2h1l2,10.011h1v2h1v4h1v2h1l1,6.007h1v2h1l1,6.007h1v2h1v3h1l1,4h1v3h1l1,5h1v2h1v3l2,1v3l2,1v3h1v2h1v2h1v2h1v2h1v2h1v2h1v2h1v2h1v2h1v2l2,2v2l2,1v2h1v2h1v2l2,2v2l2,1q0.5,2,1,4l2,1q0.5,2,1,4l2,1q0.5,2,1,4l2,1v2l2,1v2l2,1v2l2,1q0.5,2,1,4l3,2v2l2,1q0.5,1.5,1,3h1v2l2,1v2l3,2v2l3,2v2l3,2v2l3,2v2l4,3v2l4.006,3v2l5.006,4v2l6.008,5.006v2q5.508,5,11.015,10.011v2l9.013,8.008q4.5,5.005,9.012,10.011h2l12.017,13.015h2l2,3,3,2v1h2l5.007,6.007h2q1.5,2,3,4h2q0.5,1,1,2l3,1,3,4h2l2,3h2l2,3h2v1l3,1,1,2h2q1,1.5,2,3h2l1,2h2l2,3,4.006,1v1l3,1q0.5,1,1,2l4.006,1,1,2h2q0.5,1,1,2l4.006,1q0.5,1,1,2l4.005,1,1,2,4,1,1,2h3l1,2,6.008,2q0.5,1,1,2h3l1,2h3l1,2,4.006,1v1l4,1v1h3v1h2v1h2v1l6.009,2v1h3v1h2v1l4.006,1v1h3v1l4.005,1v1ZM179.509,739.539c0.761,3.547,2.615,4.5,4.005,7.008l1,4,2,1v2l2,1v2l2,1q0.5,2,1,4h1l1,3,2,1v2h1q0.5,1.5,1,3l2,1v2l3,2v2l2,1v2l3,2v2l4,3v2l4.006,3v2l2,1,1,3,6.008,5v2l8.011,7.008v2l15.02,14.015,12.016,13.014h2l6.008,7.008h2l5.006,6.007h2l3,4h2l2,3h2l2,3h2l2,3h2l2,3h2q0.5,1,1,2h2l2,3h2q0.5,1,1,2l4.006,1q0.5,1,1,2h2l1,2h2q0.5,1,1,2l4.006,1q0.5,1,1,2h2l1,2,6.008,2C345.5,901,361.63,908.63,378.778,915.731v-3h-1q-0.5-2.5-1-5.006h-1v-2h-1v-2h-1v-3h-1v-2h-1l-1-5h-1q-0.5-3-1-6.007h-1v-2h-1v-3h-1v-2h-1v-4h-1v-2h-1l-1-5h-1v-4h-1v-2h-1v-4h-1v-2h-1v-4h-1v-3h-1v-4h-1v-2h-1l-4-18.02h-1v-3h-1q-0.5-3.5-1-7.008h-1v-4h-1q-0.5-4.005-1-8.009c-1.228-3.609-2.692-7.141-3-12.013l-4-1v-1h-5.007v-1h-4v-1H320.7v-1h-3v-1h-5.007v-1h-3v-1l-20.027-4v-1l-10.014-2v-1l-7.009-1v-1h-3v-1h-4.006v-1h-2v-1h-4.006v-1h-2v-1h-4v-1h-2v-1h-4v-1h-2v-1h-4.005v-1h-2v-1h-4v-1h-2v-1h-3v-1h-2v-1h-3v-1h-2v-1h-3v-1l-5.006-1v-1h-2v-1h-3v-1l-4.006-1v-1h-3v-1h-2v-1l-4.006-1v-1h-3v-1l-9.012-3q-0.5-1-1-2Z" transform="translate(-14.938 -9.25)"/>
  <path style="fill:#e26c59;" d="M787.906,705.41V548.883h1.142v-4.571h1.143q0.572-2.285,1.142-4.57h1.143v-2.285l2.285-1.142V534.03l4.57-3.428V529.46h2.285l1.143-2.286h2.285v-1.142l4.57-1.143v-1.142h4.57V522.6c10.1-2.978,19.4,3.412,25.136,5.713l6.855,1.143V530.6h2.285v1.143h3.428v1.142h3.427v1.143H857.6v1.142h3.427v1.143h2.285v1.142l6.855,1.143v1.142h2.286v1.143l6.855,1.142v1.143h2.285v1.142l6.855,1.143V546.6h2.285v1.142h3.428v1.143h2.285v1.142l6.855,1.143v1.142h2.285v1.143l6.855,1.142v1.143h2.285v1.142h3.428v1.143h2.285v1.142l6.855,1.143v1.143h2.285v1.142l6.856,1.143v1.142h2.285v1.143h3.427v1.142h2.285v1.143l6.856,1.142v1.143h2.285v1.142l6.855,1.143v1.142h2.285v1.143h3.428V576.3h2.285v1.142l6.855,1.143v1.142h2.285v1.143H981v1.142h2.285v1.143l6.855,1.142v1.143h2.285v1.142l6.855,1.143v1.142h2.285v1.143h3.43v1.143h2.28V592.3h3.43v1.143h3.43v1.142h2.28v1.143c4.62,2.07,6.6.424,8,5.712,2.37,2.729,1.14,18.585,1.14,23.994V932.775c0,11.311.57,24.772-1.14,34.276-2.06,1.079-1.8,1.582-4.57,2.285-1.95,1.695-6.63,1.137-10.28,1.143H494.274c-16.305,0-35.893,1.43-50.272-1.143-1.079-2.058-1.582-1.8-2.285-4.57-2.3-2.638-1.142-11.351-1.142-16V775.105c0-13.742-2.338-46.161,2.285-54.842l2.285-1.142v-2.285l2.285-1.143L452,709.98h2.285l1.143-2.285,6.855-1.142V705.41c4.772-1.509,11.63,1.614,14.853-1.142,2.74-3.018,1.257-15.277,1.142-20.566,3.36-3.953-.5-13.608,1.143-19.423h1.142q0.572-13.71,1.143-27.421V624.29h1.142q0.571-13.708,1.143-27.421V584.3h1.143q0.57-13.709,1.142-27.421V544.312h1.143V523.747h1.142V504.324H489.7q0.57-13.71,1.142-27.421V464.335h1.143V443.769h1.142V424.346h1.143v-16c3.436-11.325,10.525-19.319,21.708-22.851h18.281c17.157,0,41.025-2.718,51.414,4.57l1.142,2.285,5.713,4.57q1.143,3.427,2.285,6.855h1.143v4.571H597.1v16h1.143v20.566h1.142v19.423h1.143V484.9h1.142v12.567l1.143,26.279h1.142v20.565H605.1q0.571,13.71,1.142,27.421V584.3h1.143v20.566h1.142q0.572,13.708,1.143,27.421v12.568h1.143v19.423h1.142q0.571,19.992,1.143,39.989c4.627,1.726,13.008,1.2,19.423,1.142,1.93-5.184,1.2-14.685,1.142-21.708,3.36-3.953-.5-13.608,1.143-19.423h1.142q0.571-13.71,1.143-27.421V624.29h1.142q0.572-13.708,1.143-27.421V584.3h1.143q0.57-13.709,1.142-27.421V544.312H642.8V524.889h1.142V504.324h1.143V484.9h1.142q0.572-13.71,1.143-27.421V444.912h1.142V424.346h1.143v-16c3.436-11.325,10.525-19.319,21.708-22.851h18.281c17.157,0,41.025-2.718,51.414,4.57q0.571,1.143,1.142,2.285l5.713,4.57q1.143,3.427,2.285,6.855h1.143v4.571h1.142v16h1.143v20.566h1.142v19.423h1.143V484.9h1.142v12.567l1.143,26.279h1.142v20.565h1.143q0.571,13.71,1.142,27.421V584.3h1.143v20.566h1.143q0.57,13.708,1.142,27.421v12.568H766.2v19.423h1.142q0.571,19.992,1.143,39.989C773.11,705.994,781.491,705.466,787.906,705.41ZM511.412,440.342h68.552q-0.572-14.851-1.142-29.706h-1.143c-1.771-3.829.09-4.4-4.57-5.713-2.459-2.2-10.438-1.142-14.853-1.143-13.76,0-30.4-1.109-42.274,1.143l-1.143,3.428H513.7v2.285h-1.143Q511.984,425.487,511.412,440.342Zm155.385,0h68.552q-0.572-14.851-1.142-29.706h-1.143c-1.771-3.829.09-4.4-4.57-5.713-2.459-2.2-10.438-1.142-14.853-1.143-13.76,0-30.4-1.109-42.274,1.143l-1.143,3.428h-1.142v2.285h-1.143Q667.369,425.487,666.8,440.342Zm-156.528,18.28v5.713h-1.142c-1.939,6.851.942,16.15-1.143,21.708h75.408V484.9c-1.023-1.15-2.286-23.16-2.285-26.279H510.269Zm155.385,0v5.713h-1.142c-1.939,6.851.942,16.15-1.143,21.708h75.408V484.9c-1.023-1.15-2.286-23.16-2.285-26.279H665.654Zm-158.812,45.7q-0.571,19.992-1.143,39.988h-1.142V556.88q-0.572,13.71-1.143,27.421h-1.142v20.566h-1.143q-0.572,13.708-1.143,27.421v12.568h-1.142v19.423H497.7v20.566h-1.142c-1.833,6.512.791,15.331-1.143,20.565H595.96v-1.142c-3.365-3.934.487-13.618-1.143-19.423h-1.142q-0.572-13.71-1.143-27.421V644.856h-1.143q-0.57-13.71-1.142-27.421V604.867H589.1q-0.57-13.708-1.142-27.421V564.878h-1.143V544.312h-1.142q-0.571-19.421-1.143-38.846c-1.3-.964-0.166.145-1.142-1.142h-76.55Zm155.385,0q-0.571,19.992-1.143,39.988h-1.142V556.88q-0.572,13.71-1.143,27.421h-1.142v20.566h-1.143q-0.571,13.708-1.142,27.421v12.568h-1.143v19.423h-1.143v20.566h-1.142c-1.833,6.512.791,15.331-1.143,20.565H751.345v-1.142c-3.365-3.934.487-13.618-1.143-19.423H749.06q-0.572-13.71-1.143-27.421V644.856h-1.143q-0.57-13.71-1.142-27.421V604.867h-1.143q-0.57-13.708-1.142-27.421V564.878H742.2V544.312h-1.142q-0.571-19.421-1.143-38.846c-1.3-.964-0.166.145-1.142-1.142h-76.55ZM806.186,632.288H1007.27V610.58l-11.422-3.428v-1.143l-6.856-1.142v-1.143h-2.285v-1.142l-6.855-1.143V600.3h-2.285v-1.143l-6.855-1.142v-1.143h-2.285v-1.142H965v-1.143h-2.285v-1.142h-3.428V592.3h-3.427v-1.142h-2.285v-1.143h-3.428v-1.143h-2.285v-1.142l-6.855-1.143v-1.142h-2.285V584.3l-6.856-1.142v-1.143H929.58v-1.142h-3.427v-1.143h-2.285v-1.142l-6.856-1.143V576.3h-2.285v-1.143l-6.855-1.143v-1.142h-2.285v-1.143h-3.428v-1.142h-2.285v-1.143l-6.855-1.142v-1.143h-2.285v-1.142l-6.855-1.143v-1.142h-2.285v-1.143h-3.428v-1.142h-2.285v-1.143l-6.855-1.143v-1.142h-2.285V556.88h-3.428v-1.142h-3.427V554.6H857.6v-1.142l-5.713-1.143v-1.142l-6.855-1.143v-1.142h-2.285V547.74l-6.856-1.142c-6.211-2.709-10.139-5.407-19.423-5.713-1.724,2.013-4.017,1.86-5.712,3.427-1.983,1.833-2.512,5.085-4.571,6.856v81.12Zm0,18.28v18.281H1007.27V650.568H806.186Zm0,36.562V952.2h45.7V881.361c0-10.45-1.425-26.184,2.285-33.134l2.285-1.142V844.8l4.57-3.428q1.143-1.713,2.285-3.428c10.059-7.034,32.44-4.57,49.129-4.57,12.224,0,29.146-1.438,36.562,3.428l3.427,4.57L957,844.8v2.285l2.285,1.142c3.878,7.331,2.285,24.461,2.285,35.419V952.2h45.7V687.13H806.186Zm33.134,27.421c9.183-.088,19.987-0.235,27.421,1.142,1.079,2.058,1.582,1.8,2.285,4.57,5.031,5.269-2.719,10.427-4.57,12.568-9.183.087-19.987,0.235-27.421-1.142-1.079-2.058-1.582-1.8-2.285-4.571C829.718,721.85,837.468,716.691,839.32,714.551Zm54.842,0c9.182-.088,19.987-0.235,27.421,1.142,1.079,2.058,1.582,1.8,2.285,4.57,5.031,5.269-2.719,10.427-4.57,12.568-9.183.087-19.987,0.235-27.421-1.142-1.079-2.058-1.582-1.8-2.285-4.571C884.56,721.85,892.31,716.691,894.162,714.551Zm54.842,0c9.182-.088,19.986-0.235,27.42,1.142,1.08,2.058,1.582,1.8,2.285,4.57,5.032,5.269-2.718,10.427-4.57,12.568-9.182.087-19.986,0.235-27.421-1.142-1.079-2.058-1.582-1.8-2.285-4.571C939.4,721.85,947.152,716.691,949,714.551ZM458.855,952.2H614.24V924.777c-15.255.113-33.865,1.3-45.7-2.285h-5.713c-38.872-13.053-61.837-34.807-74.265-74.265v-5.712c-2.53-8.486-2.285-19.482-2.285-30.849,0-7.155.132-15.053,1.143-20.566,2.058-1.079,1.8-1.582,4.57-2.285,2.054-1.84,7.6-1.139,11.425-1.142h31.991c13.447,0.086,24.944,3.878,34.276,8l10.283,3.427,1.143,2.285,4.57,1.143v1.142l3.427,1.143,1.143,2.285h2.285l3.428,4.57h2.285l6.855,8,3.427,2.285v2.285l4.571,3.428v2.285l2.285,1.142v2.285l2.285,1.143V836.8c1.639,2.835,3.713,3.956,4.57,8h2.285c0.891-4.035,2.923-5.157,4.57-8v-2.285l2.285-1.143v-2.285l2.285-1.142v-2.285l4.57-3.428v-2.285l8-6.855q1.143-1.715,2.285-3.428H650.8l3.428-4.57h2.285l1.143-2.285h2.285q0.57-1.143,1.142-2.285l4.57-1.143L666.8,799.1h2.285v-1.142h2.285v-1.143H674.8v-1.142l4.57-1.143v-1.142h3.427v-1.143h4.571V791.1h3.427v-1.142l13.711-1.143v-1.142h27.42c8.515,0,18.333-.082,25.136,1.142,1.079,2.058,1.582,1.8,2.285,4.571,2.309,2.62,1.143,11.364,1.143,16,0,11.789.378,24.361-2.285,33.134v5.712h-1.143v3.428h-1.142v4.57h-1.143v3.428H753.63l-1.143,4.57h-1.142v3.427H750.2v2.286H749.06v2.285l-2.286,1.142q-0.57,2.284-1.142,4.57h-1.143q-0.57,1.715-1.142,3.428l-2.285,1.142v2.286l-4.57,3.427c-12.159,16.884-30.5,27.333-52.557,34.276h-5.713c-11.869,3.534-30.421,2.41-45.7,2.285V952.2H787.906V723.691H502.272c-13.089,0-28.753-.865-39.989,1.142-1.079,2.058-1.582,1.8-2.285,4.57-2.3,2.647-1.143,11.346-1.143,16V952.2ZM839.32,751.112c9.183-.087,19.987-0.235,27.421,1.142,1.079,2.058,1.582,1.8,2.285,4.57,5.031,5.269-2.719,10.427-4.57,12.568-9.183.087-19.987,0.235-27.421-1.142-1.079-2.058-1.582-1.8-2.285-4.57C829.718,758.411,837.468,753.253,839.32,751.112Zm54.842,0c9.182-.087,19.987-0.235,27.421,1.142,1.079,2.058,1.582,1.8,2.285,4.57,5.031,5.269-2.719,10.427-4.57,12.568-9.183.087-19.987,0.235-27.421-1.142-1.079-2.058-1.582-1.8-2.285-4.57C884.56,758.411,892.31,753.253,894.162,751.112Zm54.842,0c9.182-.087,19.986-0.235,27.42,1.142,1.08,2.058,1.582,1.8,2.285,4.57,5.032,5.269-2.718,10.427-4.57,12.568-9.182.087-19.986,0.235-27.421-1.142-1.079-2.058-1.582-1.8-2.285-4.57C939.4,758.411,947.152,753.253,949,751.112ZM839.32,787.673c9.183-.087,19.987-0.235,27.421,1.142,1.079,2.058,1.582,1.8,2.285,4.571,5.031,5.268-2.719,10.427-4.57,12.567-9.183.088-19.987,0.235-27.421-1.142-1.079-2.058-1.582-1.8-2.285-4.57C829.718,794.972,837.468,789.814,839.32,787.673Zm54.842,0c9.182-.087,19.987-0.235,27.421,1.142,1.079,2.058,1.582,1.8,2.285,4.571,5.031,5.268-2.719,10.427-4.57,12.567-9.183.088-19.987,0.235-27.421-1.142-1.079-2.058-1.582-1.8-2.285-4.57C884.56,794.972,892.31,789.814,894.162,787.673Zm54.842,0c9.182-.087,19.986-0.235,27.42,1.142,1.08,2.058,1.582,1.8,2.285,4.571,5.032,5.268-2.718,10.427-4.57,12.567-9.182.088-19.986,0.235-27.421-1.142-1.079-2.058-1.582-1.8-2.285-4.57C939.4,794.972,947.152,789.814,949,787.673Zm-444.447,18.28q0.57,17.708,1.142,35.419c10.449,34.117,29.755,53.668,63.982,63.982l28.564,1.143v-1.143l-11.426-9.14q-1.141-1.715-2.285-3.428h-2.285l-6.855-8h-2.285l-6.855-8h-2.285l-6.856-8h-2.285l-6.855-8h-2.285v-1.142l-3.428-2.285v-1.143c-0.891-1.347.105-.115-1.142-1.142-0.283-9.714,2.862-12.842,12.568-12.568l60.554,52.556v-16c-2.215-2.569-.992-8.912-2.285-12.568h-1.142l-2.286-10.283h-1.142q-1.143-3.427-2.285-6.855h-1.143v-2.285l-2.285-1.143v-2.285H600.53l-1.143-3.427-2.285-1.143V836.8l-5.713-4.57q-4-4.571-8-9.14h-2.285l-1.143-2.286-3.428-1.142v-1.143h-2.285l-1.142-2.285h-2.285v-1.142l-6.855-2.285v-1.143l-10.283-2.285v-1.142h-4.57V807.1C538.99,804.036,517.115,805.905,504.557,805.953Zm237.647,0c-11.462-.088-27.109-1.563-36.561,1.143h-8c-38.5,11.787-65.509,37.231-65.124,87.975h1.142l3.428-4.57h2.285l6.855-8h2.285l5.713-6.855,3.428-1.142q3.426-4,6.855-8H666.8l6.855-8h2.285q3.427-4,6.855-8h2.285l2.286-3.427c1.733-1.69,4.177-2.688,5.712-4.57,9.714-.284,12.842,2.861,12.568,12.568l-5.713,6.855h-2.285l-6.855,8h-2.285l-6.855,8h-2.285l-5.713,6.856h-2.285l-8,9.14h-2.285l-5.712,6.855c-3.289,2.383-4.568,1.775-6.856,5.713h20.566c2.57-2.216,8.911-.992,12.568-2.285v-1.143l10.283-2.285v-1.143l6.855-2.285v-1.142h2.285l1.143-2.285H704.5v-1.143l3.427-1.142,1.143-2.285h2.285l4.57-5.713,9.14-8v-2.285l2.285-1.142,1.143-3.428h1.142v-2.285l2.285-1.143V863.08h1.143q1.143-3.428,2.285-6.855h1.143q1.142-5.141,2.285-10.283h1.142v-4.57h1.143Q741.633,823.665,742.2,805.953ZM870.168,952.2h73.123V891.644c0-12.018.695-26.371-1.143-36.561-2.058-1.08-1.8-1.583-4.57-2.286-2.6-2.315-11.38-1.142-16-1.142-15.543,0-34.37-1.424-47.987,1.142-1.079,2.058-1.582,1.8-2.285,4.571-2.406,2.747-1.143,19.615-1.143,25.135V952.2Z" transform="translate(-14.938 -9.25)"/>
</svg>
