<!-- Generated by IcoMoon.io -->
<svg version="1.1" xmlns="http://www.w3.org/2000/svg" width="1122" height="1024" viewBox="0 0 1122 1024">
<title></title>
<g id="icomoon-ignore">
</g>
<path fill="#000" d="M1074.7 729.679q1.887 4.298 3.763 8.595h0.538c0.183 0.715 0.36 1.435 0.538 2.15h0.538c0.183 0.715 0.36 1.43 0.538 2.15h0.538v1.607h0.538v1.075h0.538v1.075h0.538v1.075h0.538v1.075h0.538v1.075h0.538v1.075h0.538v1.075h0.538v1.075h0.538v1.075h0.538v1.070h0.538v1.613h0.538c0.177 0.72 0.36 1.435 0.538 2.15h0.538c0.177 1.075 0.36 2.15 0.538 3.225h0.538v1.075h0.538c0.177 1.075 0.36 2.145 0.538 3.22h0.538v1.613h0.538v1.613h0.538v1.613h0.538v2.15h0.538v1.613h0.538v2.145h0.538v2.15h0.538c0.177 1.613 0.36 3.225 0.538 4.838h0.538v3.22h0.538v3.225h0.538v3.763h0.538v5.37c1.365 4.768 0.538 12.541 0.538 18.265v187.508q-1.072 3.217-2.15 6.445c-0.36 0.177-0.715 0.36-1.075 0.538-0.177 0.715-0.36 1.435-0.538 2.15h-0.538c-0.898 1.102-1.709 1.629-2.15 3.22-1.596 0.441-2.118 1.258-3.225 2.15v0.538c-0.715 0.183-1.435 0.36-2.15 0.538v0.538c-1.075 0.36-2.15 0.715-3.225 1.075v0.538h-1.613v0.538h-2.688v0.538h-57.511c-12.589 0-19.975 0.435-27.409-4.838-0.36-0.538-0.72-1.075-1.075-1.613q-1.344-1.075-2.688-2.145v-1.075c-0.36-0.183-0.72-0.36-1.075-0.538v-1.075c-0.36-0.177-0.72-0.36-1.075-0.538-0.183-0.715-0.36-1.435-0.538-2.15h-0.538q-0.274-1.613-0.538-3.225h-0.538c-1.043-3.107-0.538-9.412-0.538-13.428v-27.941h-378.391v27.941c0 3.999 0.505 10.342-0.538 13.428h-0.538c-0.177 1.075-0.36 2.15-0.538 3.225h-0.538c-0.36 1.075-0.715 2.15-1.075 3.225-0.36 0.177-0.715 0.36-1.075 0.538v1.075q-1.881 1.613-3.763 3.22c-0.36 0.538-0.715 1.075-1.075 1.613h-1.075c-0.177 0.36-0.355 0.72-0.538 1.075-1.075 0.36-2.15 0.715-3.225 1.075v0.538c-7.020 3.069-20.012 1.613-29.559 1.613h-35.477c-5.411 0-12.698 0.994-17.201-0.538v-0.538h-1.613v-0.538h-1.075v-0.538h-1.613c-0.18-0.36-0.359-0.715-0.538-1.075-0.717-0.177-1.434-0.355-2.15-0.538q-0.806-1.075-1.613-2.15h-1.075l-1.075-1.070v-1.075l-2.15-1.613v-1.075c-0.359-0.177-0.717-0.36-1.075-0.538v-1.075h-0.538v-1.075h-0.538c-2.583-5.789-1.613-16.024-1.613-24.178v-174.069c0-4.15-0.388-9.627 0.538-12.895q0.269-4.564 0.538-9.133h0.538v-3.225h0.538v-2.682h0.538v-2.688h0.538v-2.15h0.538v-2.15h0.538v-2.15h0.538v-2.145h0.538q0.269-1.887 0.538-3.763h0.538v-1.613h0.538v-1.613h0.538v-1.613h0.538v-1.070h0.538q0.269-1.613 0.538-3.225h0.538v-1.075h0.538v-1.613h0.538c0.179-0.715 0.359-1.43 0.538-2.15h0.538v-1.075h0.538v-1.607h0.538q0.538-1.613 1.075-3.225h0.538v-1.075h0.538v-1.075h0.538v-1.075h0.538l3.763-8.595c1.302-2.435 3.352-4.752 3.763-8.058-15.143 0.145-25.986-6.327-32.249-15.046l-2.15-1.613v-1.075l-1.075-0.532v-1.075c-0.359-0.183-0.717-0.36-1.075-0.538q-0.538-1.613-1.075-3.225h-0.538c-0.179-0.715-0.359-1.435-0.538-2.15h-0.538v-1.613h-0.538v-1.607h-0.538v-1.613h-0.538v-2.15h-0.538v-2.15h-0.538v-5.37c-0.962-3.472-1.166-18.615 0-22.028h0.538v-1.613h0.538v-1.075h0.538v-1.075c0.359-0.177 0.717-0.36 1.075-0.538v-1.075h0.538l1.075-1.613h1.075c0.179-0.355 0.358-0.715 0.538-1.075 0.717-0.177 1.433-0.355 2.15-0.538v-0.532c3.284-1.419 11.689-0.538 16.126-0.538h53.749q1.613-2.693 3.225-5.375c0.177-0.715 0.355-1.43 0.538-2.15h0.538q0.532-1.613 1.075-3.22h0.538v-1.075h0.538v-1.613h0.538q0.532-1.613 1.075-3.225h0.538v-1.075h0.538q0.532-1.613 1.075-3.22c0.355-0.183 0.715-0.36 1.075-0.538 0.177-0.898 0.355-1.795 0.538-2.688 0.355-0.177 0.715-0.36 1.075-0.538 0.177-0.898 0.355-1.79 0.538-2.688h0.538v-1.075h0.538v-1.075h0.538v-1.070h0.538v-1.075h0.538v-1.075h0.538c0.177-0.72 0.355-1.435 0.538-2.15 0.355-0.177 0.715-0.36 1.075-0.538 0.177-0.898 0.355-1.79 0.538-2.688 0.355-0.177 0.715-0.355 1.075-0.538v-1.613h0.538v-1.070h0.538v-1.075h0.538v-1.075h0.538v-1.075h0.538v-1.075h0.532v-1.075h0.538v-1.075h0.538v-1.075h0.538v-1.075h0.538v-1.075h0.538v-1.070h0.538q0.538-1.613 1.075-3.225h0.538c0.183-0.715 0.36-1.435 0.538-2.15h0.538c0.183-0.715 0.36-1.43 0.538-2.15h0.538v-1.075h0.538v-1.075h0.538v-1.070h0.538v-1.075h0.538v-1.075h0.538v-1.075h0.538v-1.075h0.538v-1.075h0.538v-1.075h0.538v-1.075l1.075-1.075v-1.075c0.36-0.177 0.72-0.355 1.075-0.532v-1.075h0.538c0.183-0.72 0.36-1.435 0.538-2.15h0.538c0.183-0.538 0.36-1.075 0.538-1.613 0.36-0.177 0.72-0.36 1.075-0.538v-1.075c0.36-0.177 0.72-0.355 1.075-0.538v-1.075c0.538-0.355 1.075-0.715 1.613-1.075v-1.070c0.538-0.36 1.075-0.72 1.613-1.075v-1.075q1.879-1.613 3.763-3.225v-1.075c0.36-0.177 0.715-0.36 1.075-0.538q0.806-1.072 1.613-2.15h1.075l3.225-3.757h1.075q0.806-1.080 1.613-2.15c0.538-0.177 1.075-0.36 1.613-0.538 0.177-0.36 0.36-0.715 0.538-1.075h1.075c0.177-0.36 0.36-0.715 0.538-1.075 0.538-0.177 1.075-0.355 1.613-0.538v-0.538c0.715-0.177 1.43-0.355 2.15-0.538 0.177-0.355 0.355-0.715 0.538-1.075h1.075l1.075-1.070h1.075v-0.538h1.075v-0.538h1.075v-0.538h1.075v-0.538q1.613-0.54 3.225-1.075v-0.538h1.613v-0.538h1.613v-0.538h1.075v-0.538h1.613v-0.538q7.249-1.613 14.508-3.225 9.942-0.269 19.889-0.538h209.084c29.446 0 64.391-2.693 84.919 6.45q7.257 4.031 14.513 8.058c0.177 0.36 0.36 0.715 0.538 1.075 0.538 0.177 1.075 0.36 1.613 0.538q0.806 1.075 1.613 2.15h1.075q2.145 2.419 4.3 4.832h1.075c0.177 0.538 0.355 1.075 0.538 1.613q2.419 2.153 4.838 4.3v1.075c0.538 0.355 1.075 0.715 1.613 1.075v1.070c0.538 0.36 1.075 0.72 1.613 1.075v1.075c0.355 0.183 0.715 0.36 1.075 0.538 0.177 0.538 0.355 1.075 0.538 1.613h0.538v1.075c0.355 0.177 0.715 0.36 1.075 0.538q0.532 1.613 1.075 3.225c0.355 0.177 0.715 0.355 1.070 0.532 0.183 0.72 0.36 1.435 0.538 2.15h0.538v1.075h0.538v1.075h0.538v1.075h0.538v1.075h0.538v1.075h0.538c0.183 0.715 0.36 1.43 0.538 2.15h0.538v1.070h0.538v1.075h0.538v1.075h0.538v1.075h0.538v1.075h0.538v1.075h0.538v1.075h0.538v1.075h0.538v1.075h0.538v1.075h0.538q0.54 1.605 1.075 3.22h0.538q0.54 1.613 1.075 3.225h0.538c0.183 0.715 0.36 1.43 0.538 2.15h0.538c0.183 0.715 0.36 1.43 0.538 2.15h0.538v1.070h0.538v1.075h0.538v1.075h0.538v1.075h0.538v1.075h0.538v1.075h0.538v1.075h0.538v1.075h0.538v1.075h0.538v1.075h0.538v1.070h0.538v1.075h0.538v1.075h0.538v1.075h0.538c0.36 1.075 0.715 2.15 1.075 3.225h0.538c0.36 1.075 0.715 2.15 1.075 3.22h0.538c0.177 0.72 0.36 1.435 0.538 2.15h0.538c0.177 0.72 0.36 1.435 0.538 2.15h0.538v1.075h0.538v1.075h0.538v1.075h0.538v1.075h0.538v1.075h0.538c0.177 0.715 0.36 1.43 0.538 2.145h0.538v1.075h0.538v1.075h0.538v1.075h0.538v1.075l1.075 1.075c0.366 0.661 0.489 2.36 1.075 2.688h68.261v0.538h1.613v0.532h1.075v0.538h1.075c0.355 0.538 0.715 1.075 1.075 1.613 0.538 0.183 1.075 0.36 1.613 0.538v1.075c0.538 0.36 1.075 0.715 1.613 1.075 0.177 0.715 0.355 1.435 0.538 2.15h0.538c1.505 3.462 1.731 18.862 0.538 23.103v5.37q-1.347 4.838-2.688 9.67h-0.538c-0.183 0.715-0.36 1.435-0.538 2.15h-0.538c-0.183 0.715-0.36 1.435-0.538 2.15-0.36 0.177-0.72 0.355-1.075 0.538-0.183 0.715-0.36 1.43-0.538 2.15-0.538 0.355-1.075 0.715-1.613 1.070v1.075q-1.080 0.806-2.15 1.613v1.075c-0.898 0.715-1.795 1.435-2.688 2.15-0.183 0.36-0.36 0.715-0.538 1.075h-1.075q-0.806 1.072-1.613 2.15h-1.075c-0.36 0.538-0.715 1.070-1.075 1.607-0.715 0.183-1.435 0.36-2.15 0.538-5.922 3.752-11.593 5.961-21.5 5.913zM1046.754 716.246c-0.344-1.887-1.414-2.93-2.15-4.3-0.183-0.715-0.36-1.43-0.538-2.145h-0.538c-0.183-0.72-0.36-1.435-0.538-2.15h-0.538v-1.075h-0.538v-1.075h-0.538v-1.075h-0.538v-1.075h-0.538v-1.075h-0.538v-1.070h-0.538v-1.075h-0.538v-1.075h-0.538v-1.075h-0.538v-1.075h-0.538v-1.075h-0.538v-1.075h-0.538v-1.075h-0.538v-1.075h-0.538v-1.075h-0.538v-1.070h-0.538c-0.36-1.075-0.715-2.15-1.075-3.225h-0.538c-0.36-1.075-0.715-2.15-1.075-3.225h-0.538c-0.177-0.715-0.36-1.43-0.538-2.15h-0.538c-0.177-0.715-0.36-1.43-0.538-2.145h-0.538v-1.075h-0.538v-1.075h-0.538v-1.075h-0.538v-1.075h-0.538v-1.075h-0.538v-1.075h-0.538c-0.177-0.715-0.36-1.43-0.538-2.15h-0.538c-0.177-0.715-0.36-1.43-0.538-2.145h-0.538v-1.075h-0.538v-1.075h-0.538v-1.075h-0.538v-1.075h-0.538q-0.532-1.613-1.075-3.225c-8.079-15.099-15.551-31.107-23.646-46.201q-0.538-1.613-1.075-3.225h-0.538q-0.538-1.613-1.075-3.225h-0.538c-0.183-0.715-0.36-1.43-0.538-2.15h-0.538c-0.183-0.715-0.36-1.43-0.538-2.145h-0.538v-1.075h-0.538v-1.075h-0.538v-1.075h-0.538v-1.075h-0.538v-1.075h-0.538v-1.075h-0.538v-1.075l-1.075-1.070v-1.075c-0.36-0.183-0.72-0.36-1.075-0.538-0.183-0.72-0.36-1.435-0.538-2.15-0.36-0.177-0.72-0.36-1.075-0.538-0.183-0.715-0.36-1.435-0.538-2.15-0.538-0.355-1.075-0.715-1.613-1.075v-1.075c-0.538-0.355-1.075-0.715-1.613-1.075v-1.070c-0.898-0.72-1.79-1.435-2.688-2.15v-1.075c-0.898-0.715-1.79-1.435-2.688-2.15-0.177-0.36-0.36-0.715-0.538-1.075h-1.075c-0.898-1.075-1.79-2.15-2.688-3.225h-1.075c-0.36-0.532-0.715-1.070-1.075-1.607h-1.075c-0.177-0.36-0.36-0.72-0.538-1.075h-1.075c-0.177-0.36-0.36-0.72-0.538-1.075-0.715-0.183-1.435-0.36-2.15-0.538-0.177-0.36-0.36-0.715-0.538-1.075-0.715-0.177-1.435-0.36-2.15-0.538v-0.538c-1.075-0.36-2.15-0.715-3.225-1.075v-0.538h-1.613v-0.538h-1.075v-0.538q-1.613-0.266-3.225-0.538v-0.538h-1.613v-0.538l-3.763-0.532v-0.538h-3.225c-4.144-1.215-10.025-1.075-15.583-1.075h-273.045v0.538h-3.763v0.538h-2.688v0.538h-2.15v0.532h-2.15q-6.442 2.693-12.895 5.375c-0.183 0.36-0.36 0.715-0.538 1.075-0.72 0.177-1.435 0.355-2.15 0.538v0.538c-0.538 0.177-1.075 0.355-1.613 0.538-0.183 0.355-0.36 0.715-0.538 1.075h-1.075l-1.613 2.145h-1.075q-1.887 2.153-3.763 4.3-2.688 2.419-5.375 4.838v1.070c-0.538 0.36-1.075 0.72-1.613 1.075v1.075c-0.36 0.183-0.715 0.36-1.075 0.538-0.177 0.538-0.36 1.075-0.538 1.613h-0.538v1.075c-0.36 0.177-0.715 0.36-1.075 0.538v1.075l-1.075 1.075v1.075h-0.538v1.070h-0.538c-0.36 1.075-0.715 2.15-1.075 3.225h-0.538c-0.177 0.715-0.36 1.435-0.538 2.15h-0.538c-0.177 0.715-0.36 1.43-0.538 2.15h-0.538v1.075h-0.538v1.075h-0.538v1.070h-0.538v1.075h-0.538v1.075h-0.538v1.075h-0.538v1.075h-0.538v1.075h-0.538v1.075h-0.538v1.075h-0.538c-0.177 0.715-0.355 1.43-0.538 2.15h-0.538c-0.177 0.715-0.355 1.43-0.538 2.145h-0.538v1.075h-0.538v1.075h-0.538v1.075h-0.538v1.075h-0.538v1.075h-0.538q-0.532 1.613-1.075 3.225h-0.538v1.070h-0.538c-0.177 0.72-0.355 1.435-0.538 2.15h-0.538c-0.177 0.715-0.355 1.435-0.538 2.15h-0.538v1.075h-0.538v1.075h-0.538v1.075h-0.538v1.075h-0.538c-0.177 0.715-0.355 1.43-0.538 2.145-4.445 8.321-8.971 16.932-13.433 25.253-0.183 0.715-0.36 1.435-0.538 2.15h-0.538q-0.54 1.613-1.075 3.22h-0.538c-0.183 0.72-0.36 1.435-0.538 2.15h-0.538c-0.183 0.72-0.36 1.435-0.538 2.15h-0.538v1.075h-0.538v1.075h-0.538v1.075h-0.538v1.075h-0.538c-0.36 1.075-0.72 2.145-1.075 3.22h-0.538v1.075h-0.538v1.075h-0.538v1.075h-0.538v1.075h-0.538q-0.54 1.613-1.075 3.225h-0.538c-0.36 1.075-0.72 2.145-1.075 3.22h-0.538c-0.177 0.72-0.36 1.435-0.538 2.15h-0.538c-0.177 0.715-0.36 1.435-0.538 2.15h-0.538v1.075h-0.538v1.075h-0.538v1.075h-0.538v1.075h-0.538v1.070h-0.538v1.075h-0.538v1.075h-0.538v1.075h-0.538v1.075h-0.538v1.075c-0.511 0.951-4.612 7.671-4.3 8.595h0.538c0.855 0.951 1.037 0.473 2.15 1.075v0.538h1.075v0.538h1.613v0.538h1.075v0.538h1.075v0.538q1.613 0.532 3.225 1.075v0.538h1.613v0.538h1.075v0.532c0.715 0.183 1.43 0.36 2.15 0.538v0.538h1.613v0.538h1.075v0.538h1.075v0.538c1.075 0.36 2.15 0.715 3.225 1.075v0.538h1.613v0.538h1.075v0.538c1.075 0.36 2.15 0.715 3.225 1.075v0.538h1.613v0.538c1.070 0.355 2.15 0.715 3.22 1.075v0.538h432.139v-0.538h1.613v-0.538c0.72-0.183 1.435-0.36 2.15-0.538v-0.538h1.613v-0.538h1.075v-0.538c0.72-0.177 1.435-0.36 2.15-0.538v-0.538h1.613v-0.538c0.715-0.177 1.435-0.36 2.15-0.538v-0.538h1.613v-0.538h1.075v-0.538c0.715-0.177 1.435-0.355 2.15-0.538v-0.538h1.613v-0.538c0.715-0.177 1.435-0.355 2.15-0.538v-0.532h1.613v-0.538h1.075v-0.538c0.715-0.183 1.435-0.36 2.15-0.538v-0.538h1.613v-0.538c0.715-0.183 1.435-0.36 2.15-0.538v-0.538h1.613v-0.538c1.229-0.639 2.659-1.191 4.155-1.581l0.145-0.032zM494.218 676.49v15.578c3.347 11.068 8.667 16.126 19.889 19.346h13.438c1.951-4.617 4.684-9.138 6.988-13.433v-1.075h0.538c0.179-0.715 0.359-1.435 0.538-2.15h0.538v-1.075h0.538v-1.075h0.538v-1.075h0.538v-1.070h0.538v-1.075h0.538c0.177-0.72 0.36-1.435 0.538-2.15h0.538v-1.075h0.538v-1.075h0.538v-1.075h0.538v-1.075h0.538v-1.075c0.935-1.747 2.145-3.059 2.688-5.37h-50.528zM1047.829 676.49c0.414 1.801 1.908 3.392 2.688 4.832q0.532 1.613 1.075 3.225h0.538c0.177 0.715 0.355 1.435 0.538 2.15h0.538c0.177 0.715 0.355 1.43 0.538 2.15h0.538c0.177 0.715 0.355 1.43 0.538 2.145h0.538c0.177 0.72 0.355 1.435 0.538 2.15h0.538v1.075h0.538v1.075h0.538v1.075h0.538v1.075h0.538q0.532 1.613 1.075 3.225c1.715 3.204 4.365 6.966 5.37 10.745h13.976c10.718-3.241 16.164-8.579 19.351-19.346v-15.578h-50.523zM537.217 732.904q-7.794 15.578-15.588 31.161v1.607h-0.538v1.075h-0.538q-0.269 1.613-0.538 3.225h-0.538v1.075h-0.538q-0.538 2.685-1.075 5.37h-0.538v1.613h-0.538v2.15h-0.538v2.15h-0.538v2.15h-0.538v2.145h-0.538q-0.269 3.225-0.538 6.45h-0.538q-0.269 4.564-0.538 9.133c-0.883 3.118-0.538 8.364-0.538 12.358v172.457c0 5.563-1.44 15.551 2.15 17.733 2.194 2.172 10.424 1.075 14.513 1.075h40.315c3.021 0 14.159 0.715 15.583-0.538 1.521-0.36 2.026-0.994 2.688-2.15 2.166-2.231 1.075-10.396 1.075-14.508v-34.918h0.538q0.538-1.613 1.075-3.225c1.742-0.951 3.37-2.58 5.375-3.225h400.967c1.193 0.382 2.258 1.29 3.763 1.613 0.908 1.596 2.612 2.967 3.22 4.838v14.503c0 11.503-0.43 24.302 0.538 34.924q1.613 1.338 3.225 2.688h48.378c7.149 0 17.206 1.080 22.571-1.075 0.317-0.591 0.941-0.855 1.075-1.075v-1.075h0.538v-202.010h-0.538v-4.3h-0.538v-3.757h-0.538v-3.225q-2.419-9.127-4.838-18.265h-0.538v-1.075h-0.538q-0.266-1.613-0.538-3.225h-0.538v-1.075h-0.538v-1.607h-0.538q-0.532-1.613-1.075-3.225h-0.538v-1.075h-0.538v-1.613h-0.538c-0.177-0.715-0.355-1.43-0.538-2.15h-0.538q-0.532-1.613-1.075-3.22h-0.538c-0.177-0.72-0.355-1.435-0.538-2.15h-0.538c-0.177-0.715-0.355-1.435-0.538-2.15h-0.538c-0.177-0.715-0.355-1.435-0.532-2.15h-0.538v-1.075h-0.538v-1.075h-0.538v-1.070h-0.538v-1.075h-0.538v-1.075h-0.538v-1.075h-0.538v-1.075h-0.538v-1.075h-0.538v-1.075l-1.075-1.075c-0.371-0.667-0.484-2.354-1.075-2.682h-1.613c-1.113 1.199-1.193 0.392-2.688 1.070v0.538h-1.075v0.538c-0.72 0.183-1.435 0.36-2.15 0.538v0.538h-1.613v0.538c-0.72 0.177-1.435 0.36-2.15 0.538v0.538h-1.613v0.538c-0.715 0.177-1.435 0.36-2.15 0.538v0.538h-1.613v0.538h-1.075v0.538c-0.715 0.177-1.435 0.355-2.15 0.538v0.538h-1.613v0.538c-0.715 0.177-1.435 0.355-2.15 0.538v0.538h-1.613v0.532c-0.715 0.183-1.435 0.36-2.15 0.538v0.538h-1.613v0.538c-0.715 0.183-1.435 0.36-2.15 0.538v0.538h-1.613v0.538h-1.075v0.538c-0.715 0.177-1.43 0.36-2.15 0.538v0.538c-0.892 0.177-1.79 0.36-2.688 0.538v0.538h-1.075v0.538h-440.735v-0.538h-1.075v-0.538h-1.613v-0.538c-1.075-0.36-2.15-0.715-3.225-1.075v-0.538h-1.075v-0.538h-1.613v-0.538h-1.075v-0.538q-1.613-0.532-3.225-1.075v-0.538h-1.613v-0.532h-1.075v-0.538h-1.075v-0.538q-1.613-0.54-3.225-1.075v-0.538l-4.838-1.613v-0.538h-1.075v-0.538h-1.613v-0.538h-1.075v-0.538q-4.572-1.879-9.137-3.757zM607.090 787.701h14.513v0.538h3.225v0.538h2.688v0.538h2.15v0.538h1.613v0.538h1.613v0.538h1.613v0.538h1.613v0.538c0.715 0.177 1.43 0.36 2.145 0.538v0.538h1.613v0.538h1.075v0.538h1.075c0.183 0.355 0.36 0.715 0.538 1.075 0.72 0.177 1.435 0.355 2.15 0.538 0.183 0.355 0.36 0.715 0.538 1.070 0.72 0.183 1.435 0.36 2.15 0.538 0.36 0.538 0.72 1.075 1.075 1.613h1.075c0.36 0.538 0.72 1.075 1.075 1.613h1.075l9.676 10.208v1.075c0.538 0.36 1.075 0.715 1.613 1.075v1.075c0.36 0.177 0.715 0.355 1.075 0.538 0.36 1.075 0.715 2.15 1.075 3.22 0.36 0.183 0.715 0.36 1.075 0.538v1.075h0.538c0.177 0.72 0.36 1.435 0.538 2.15h0.538v1.613h0.538v1.075h0.538c0.177 0.892 0.36 1.79 0.538 2.688h0.538c0.177 1.252 0.36 2.505 0.538 3.757 1.709 5.128 3.591 16.303 1.613 23.103v3.225q-1.613 5.636-3.225 11.283h-0.538c-0.177 0.715-0.36 1.43-0.538 2.145h-0.538v1.613h-0.538v1.075c-0.36 0.183-0.715 0.36-1.075 0.538-0.36 1.075-0.715 2.15-1.075 3.225-0.36 0.177-0.715 0.355-1.075 0.538v1.075h-0.538c-0.177 0.538-0.36 1.075-0.538 1.613-0.36 0.177-0.715 0.355-1.075 0.532v1.075c-0.715 0.538-1.435 1.075-2.15 1.613v1.075c-1.075 0.898-2.15 1.79-3.225 2.688q-1.613 1.881-3.225 3.763h-1.075l-1.613 2.145h-1.075c-0.355 0.538-0.715 1.075-1.075 1.613h-1.075c-0.177 0.36-0.355 0.715-0.538 1.075-0.715 0.177-1.43 0.36-2.15 0.538-0.177 0.36-0.355 0.715-0.538 1.075h-1.075l-1.075 1.075h-1.075v0.538h-1.075v0.538c-0.715 0.177-1.43 0.355-2.145 0.538v0.538h-1.613v0.538h-1.075v0.532q-6.991 1.613-13.976 3.225c-2.698 0.758-10.434 0.016-12.363-0.538h-3.763v-0.538h-2.688v-0.538h-2.688v-0.538h-1.613v-0.538h-1.613v-0.538h-1.613v-0.532h-1.613v-0.538h-1.075v-0.538h-1.613v-0.538c-0.715-0.183-1.43-0.36-2.15-0.538v-0.538c-0.715-0.183-1.43-0.36-2.15-0.538-0.177-0.36-0.355-0.715-0.538-1.075-0.715-0.177-1.43-0.36-2.15-0.538v-0.538c-0.538-0.177-1.075-0.36-1.613-0.538-0.177-0.36-0.355-0.715-0.538-1.075h-1.075c-0.355-0.538-0.715-1.075-1.075-1.613h-1.075c-0.892-1.075-1.79-2.145-2.682-3.22h-1.075c-0.183-0.36-0.36-0.72-0.538-1.075q-1.080-0.806-2.15-1.613v-1.075c-1.075-0.898-2.15-1.79-3.225-2.688v-1.075c-0.538-0.355-1.075-0.715-1.613-1.075v-1.070c-0.36-0.183-0.72-0.36-1.075-0.538-0.183-0.538-0.36-1.075-0.538-1.613h-0.538c-0.183-0.715-0.36-1.435-0.538-2.15-0.36-0.177-0.72-0.36-1.075-0.538-0.183-0.715-0.36-1.435-0.538-2.15h-0.538c-0.183-0.715-0.36-1.43-0.538-2.15h-0.538v-1.607h-0.538v-1.075h-0.538v-1.613h-0.538v-1.613h-0.538v-1.613h-0.538v-2.15c-1.532-4.574-3.29-13.96-1.613-19.878v-4.295h0.538c0.177-1.79 0.36-3.585 0.538-5.375h0.538v-1.613h0.538v-1.613h0.538v-1.607h0.538v-1.613h0.538v-1.075h0.538v-1.613h0.538q0.532-1.613 1.075-3.225h0.538c0.177-0.715 0.355-1.43 0.538-2.145 0.355-0.183 0.715-0.36 1.075-0.538v-1.075c0.355-0.183 0.715-0.36 1.075-0.538v-1.075h0.538c0.177-0.538 0.355-1.075 0.538-1.613 0.355-0.177 0.715-0.36 1.075-0.538v-1.075q1.338-1.075 2.688-2.15v-1.075q1.879-1.605 3.763-3.22c0.355-0.538 0.715-1.075 1.075-1.613h1.075c0.715-0.898 1.43-1.79 2.145-2.688h1.075c0.36-0.538 0.72-1.075 1.075-1.613h1.075c0.183-0.355 0.36-0.715 0.538-1.075 0.72-0.177 1.435-0.355 2.15-0.538 0.183-0.355 0.36-0.715 0.538-1.070 0.72-0.183 1.435-0.36 2.15-0.538v-0.538h1.075v-0.538q1.613-0.54 3.225-1.075v-0.538h1.613v-0.538h1.075v-0.538h1.613v-0.538h1.613v-0.538h2.15v-0.538h2.15v-0.538c1.715-0.57 4.736-0.048 5.913-1.075zM1020.415 887.633h-1.075c-2.043 3.526-5.746 5.279-9.138 7.52-0.177 0.36-0.355 0.715-0.538 1.075-0.715 0.177-1.43 0.36-2.15 0.538-0.177 0.36-0.355 0.715-0.538 1.075-0.715 0.177-1.43 0.355-2.15 0.538v0.538c-0.715 0.177-1.43 0.355-2.15 0.538v0.538h-1.607v0.538h-1.075v0.538l-3.225 0.532c-9.057 3.553-23.259 4.467-33.327 1.075-1.79-0.355-3.585-0.715-5.375-1.075-17.497-7.552-27.984-18.427-35.472-35.993q-1.344-5.644-2.688-11.283c-0.742-2.623-0.022-14.202 0.538-16.115v-3.225h0.538v-2.15h0.538v-2.15h0.538v-2.15h0.538v-1.607h0.538v-1.613h0.538v-1.075h0.538v-1.613h0.538q0.532-1.613 1.075-3.225h0.538c0.177-0.715 0.355-1.43 0.538-2.15 0.355-0.177 0.715-0.355 1.075-0.532 0.177-0.72 0.355-1.435 0.538-2.15 0.355-0.183 0.715-0.36 1.075-0.538v-1.075c0.355-0.177 0.715-0.36 1.075-0.538 0.177-0.538 0.355-1.075 0.538-1.613 0.538-0.36 1.075-0.715 1.613-1.075v-1.075q2.951-2.688 5.913-5.37c0.715-0.898 1.43-1.79 2.15-2.688h1.070c0.36-0.538 0.72-1.075 1.075-1.613 0.538-0.177 1.075-0.355 1.613-0.538 0.183-0.355 0.36-0.715 0.538-1.075h1.075c0.183-0.355 0.36-0.715 0.538-1.075 1.075-0.355 2.15-0.715 3.225-1.070 0.183-0.36 0.36-0.72 0.538-1.075l4.838-1.613v-0.538h1.075v-0.538h1.613v-0.538h1.075v-0.538h2.15v-0.538h1.613v-0.538h2.15c6.95-2.258 19.4-2.322 26.339 0h2.15v0.538h2.15v0.538h1.613v0.538h1.613v0.538h1.075v0.538h1.613v0.538q1.605 0.532 3.22 1.075v0.538h1.075v0.538c0.72 0.177 1.435 0.355 2.15 0.538 0.183 0.355 0.36 0.715 0.538 1.070 0.72 0.183 1.435 0.36 2.15 0.538 0.36 0.538 0.72 1.075 1.075 1.613h1.075c0.183 0.36 0.36 0.72 0.538 1.075h1.075c0.72 0.898 1.435 1.79 2.15 2.688h1.075q1.613 1.879 3.225 3.763c0.36 0.177 0.72 0.355 1.075 0.538v1.070c0.898 0.72 1.79 1.435 2.688 2.15v1.075c0.538 0.36 1.075 0.715 1.613 1.075v1.075c0.36 0.177 0.715 0.36 1.075 0.538 0.177 0.538 0.36 1.075 0.538 1.613h0.538c0.177 0.715 0.36 1.43 0.538 2.145 0.36 0.183 0.715 0.36 1.075 0.538 0.177 0.72 0.36 1.435 0.538 2.15h0.538c0.177 0.715 0.36 1.435 0.538 2.15h0.538v1.613h0.538v1.075h0.538v1.613h0.538v1.607h0.538v1.613h0.538v2.15h0.538v2.15h0.538q0.269 3.494 0.538 6.983h0.538c0.693 2.478-0.048 9.041-0.538 10.745q-0.266 3.494-0.538 6.988-2.15 6.442-4.3 12.89c-0.36 0.183-0.715 0.36-1.075 0.538v1.613c-0.36 0.177-0.715 0.36-1.075 0.538-0.36 1.075-0.715 2.15-1.075 3.225h-0.538c-0.177 0.538-0.36 1.075-0.538 1.613-0.36 0.177-0.715 0.355-1.075 0.538v1.070c-0.538 0.36-1.075 0.72-1.613 1.075-0.177 0.538-0.36 1.075-0.538 1.613h-0.538c-1.156 1.376-2.682 2.36-3.225 4.3zM610.315 805.971v0.538h-3.225q-4.572 1.338-9.138 2.682v0.538h-1.075v0.538c-1.075 0.36-2.15 0.715-3.225 1.075-0.177 0.36-0.355 0.715-0.538 1.075h-1.075c-0.177 0.36-0.355 0.715-0.538 1.075h-1.075c-0.355 0.538-0.715 1.075-1.075 1.613h-1.075l-3.225 3.757q-1.075 0.806-2.15 1.613v1.075c-0.538 0.36-1.075 0.715-1.613 1.075v1.075c-0.355 0.177-0.715 0.36-1.075 0.538v1.075c-0.355 0.177-0.715 0.355-1.075 0.538-0.355 1.075-0.715 2.145-1.075 3.22h-0.538v1.075h-0.538v1.613h-0.532v1.613h-0.538v1.613h-0.538v1.613h-0.538v2.682h-0.538v4.3h-0.538c-0.731 2.623 0.532 7.886 1.075 9.67q0.532 3.225 1.075 6.445h0.538v1.075h0.532v1.613h0.538v1.075h0.538q0.538 1.613 1.075 3.225c0.36 0.177 0.72 0.355 1.075 0.538v1.075c0.36 0.177 0.72 0.355 1.075 0.538v1.070c0.538 0.36 1.075 0.72 1.613 1.075v1.075q1.887 1.613 3.763 3.225c0.538 0.715 1.075 1.435 1.613 2.15h1.075c0.36 0.538 0.72 1.075 1.075 1.613h1.075c0.183 0.355 0.36 0.715 0.538 1.075h1.075c0.183 0.355 0.36 0.715 0.538 1.070q1.613 0.54 3.225 1.075v0.538c0.715 0.183 1.435 0.36 2.15 0.538v0.538c1.075 0.177 2.15 0.36 3.225 0.538 2.634 1.021 11.605 3.44 16.126 2.15q4.838-1.072 9.676-2.15v-0.538h1.075v-0.538h1.613v-0.538h1.075v-0.538h1.075c0.177-0.355 0.355-0.715 0.538-1.075 0.715-0.177 1.43-0.355 2.15-0.538 0.177-0.355 0.355-0.715 0.538-1.070h1.075c0.177-0.36 0.355-0.72 0.532-1.075h1.075q1.080-1.344 2.15-2.688h1.075c0.538-0.715 1.075-1.435 1.613-2.15h0.538v-1.075q1.080-0.806 2.15-1.613v-1.075c0.538-0.355 1.075-0.715 1.613-1.070 0.183-0.72 0.36-1.435 0.538-2.15 0.36-0.183 0.72-0.36 1.075-0.538v-1.075h0.538c0.183-0.715 0.36-1.435 0.538-2.15h0.538q1.344-4.298 2.688-8.595v-3.225h0.538c0.839-2.967-0.382-12.992-1.075-15.040h-0.538v-2.15h-0.538v-1.613h-0.538v-1.075h-0.538v-1.613h-0.538c-0.177-0.715-0.355-1.43-0.538-2.145h-0.538v-1.075c-0.355-0.183-0.715-0.36-1.075-0.538v-1.075h-0.538c-0.177-0.538-0.355-1.075-0.538-1.613-0.355-0.177-0.715-0.36-1.075-0.538v-1.075q-1.613-1.338-3.225-2.688-1.881-2.145-3.763-4.295h-1.075c-0.355-0.538-0.715-1.075-1.070-1.613h-1.075c-0.183-0.36-0.36-0.715-0.538-1.075-0.72-0.177-1.435-0.36-2.15-0.538v-0.538h-1.075v-0.538q-1.613-0.532-3.225-1.075v-0.538q-2.419-0.532-4.838-1.075v-0.538h-2.688c-3.112-0.93-6.988-1.091-11.288-1.070zM974.73 805.971v0.538h-3.763v0.532h-2.688v0.538h-1.613v0.538h-1.613v0.538h-1.613c-10.595 4.671-18.523 12.938-23.109 23.641v1.613h-0.538v1.613h-0.538v2.688h-0.538v2.682h-0.538c-0.876 3.042 0.349 14.083 1.075 16.121h0.538c0.355 1.613 0.715 3.22 1.075 4.832h0.532q0.54 1.613 1.075 3.225h0.538c0.183 0.715 0.36 1.43 0.538 2.15 0.36 0.177 0.72 0.355 1.075 0.538v1.075c0.36 0.177 0.72 0.355 1.075 0.538v1.070q1.347 1.080 2.688 2.15v1.075c0.36 0.177 0.72 0.36 1.075 0.538 0.538 0.715 1.075 1.435 1.613 2.15h1.075q0.806 1.075 1.613 2.15h1.075c0.36 0.538 0.72 1.075 1.075 1.613 0.72 0.177 1.435 0.355 2.15 0.532 0.183 0.36 0.36 0.72 0.538 1.075h1.075v0.538c0.72 0.183 1.435 0.36 2.15 0.538v0.538h1.613v0.538h1.075v0.538c1.252 0.177 2.51 0.36 3.763 0.538 2.397 0.796 10.595 2.736 14.513 1.613v-0.538h3.225v-0.538h2.688v-0.538h1.613v-0.538h1.613v-0.538h1.613v-0.538h1.075v-0.538h1.075v-0.538h1.075l1.075-1.075h1.075c0.177-0.355 0.355-0.715 0.538-1.070h1.075c0.177-0.36 0.355-0.72 0.538-1.075h1.070c0.36-0.538 0.72-1.075 1.075-1.613h1.075c0.538-0.715 1.075-1.435 1.613-2.15q1.887-1.613 3.763-3.225v-1.075c0.538-0.355 1.075-0.715 1.613-1.075v-1.070c0.36-0.183 0.72-0.36 1.075-0.538v-1.075c0.36-0.183 0.72-0.36 1.075-0.538q0.54-1.613 1.075-3.225h0.538v-1.075h0.538v-1.613h0.538v-1.607h0.538v-1.613h0.538v-1.613h0.538v-2.688h0.538v-5.37h0.538q-0.266-4.031-0.538-8.063h-0.538v-2.682h-0.538v-2.15h-0.538q-0.266-1.613-0.538-3.225h-0.538v-1.075h-0.538v-1.613h-0.538v-1.075c-0.355-0.177-0.715-0.355-1.075-0.532q-0.532-1.613-1.075-3.225c-0.538-0.36-1.075-0.715-1.613-1.075v-1.075c-0.538-0.36-1.075-0.715-1.613-1.075v-1.075c-0.355-0.177-0.715-0.355-1.075-0.538l-3.225-3.757h-1.075q-0.806-1.080-1.613-2.15h-1.070c-0.183-0.36-0.36-0.715-0.538-1.075-0.72-0.177-1.435-0.36-2.15-0.538-0.183-0.36-0.36-0.715-0.538-1.075l-4.838-1.613v-0.538h-1.075v-0.538h-1.613v-0.538h-2.15c-3.935-1.279-7.972-1.639-13.438-1.607z"></path>
<path fill="#000" d="M1084.064 368.313c12.842-0.142 31.897-1.783 39.783 3.225 0.177 0.358 0.355 0.717 0.538 1.075h1.075l1.613 2.15 3.225 2.688v1.075c0.36 0.179 0.715 0.359 1.075 0.538 2.328 3.687 4.628 12.225 2.688 18.279v2.15h-0.538v1.613h-0.538c-0.36 1.075-0.715 2.15-1.075 3.225h-0.538v1.075l-1.613 1.075v1.075q-1.347 1.075-2.688 2.15c-0.36 0.538-0.72 1.075-1.075 1.613h-1.075c-0.36 0.538-0.72 1.075-1.075 1.613-5.875 3.875-14.965 3.225-24.727 3.225h-967.603v499.461q0.269 6.45 0.538 12.906h0.538q0.269 2.956 0.538 5.913h0.538l0.538 3.763h0.538v1.613h0.538v1.613h0.538v1.613h0.538v1.075h0.538v1.613h0.538q0.538 1.613 1.075 3.231h0.538v1.075h0.538v1.075h0.538q0.538 1.613 1.075 3.225c0.358 0.177 0.717 0.355 1.075 0.538 0.179 0.715 0.358 1.43 0.538 2.15 0.538 0.355 1.075 0.715 1.613 1.075v1.075c0.359 0.177 0.717 0.36 1.075 0.538v1.075c0.538 0.36 1.075 0.715 1.613 1.075v1.075q2.15 1.879 4.3 3.763v1.075q1.881 1.344 3.763 2.688l2.688 3.225h1.075l1.075 1.613h1.075c0.18 0.36 0.359 0.72 0.538 1.075h1.075l1.075 1.613c0.717 0.183 1.434 0.36 2.15 0.538q0.269 0.538 0.538 1.080 1.613 0.532 3.225 1.075v0.538h1.075v0.538h1.075v0.538q1.613 0.532 3.225 1.075v0.538h1.613v0.538h1.075v0.538h1.613v0.538h1.613v0.538h1.613v0.538h2.15v0.538h2.15v0.538h2.688v0.538h3.225v0.538q9.138 0.266 18.276 0.538h217.176c5.649 0 14.792-1 19.351 0.538v0.538h1.613v0.538c1.446 0.57 3.080 0.323 4.3 1.075v0.538c0.538 0.177 1.075 0.36 1.613 0.538 0.179 0.36 0.359 0.715 0.538 1.075h1.075l2.688 3.225c0.538 0.36 1.075 0.715 1.613 1.075v1.075c0.359 0.183 0.717 0.36 1.075 0.538v1.075c0.358 0.183 0.717 0.36 1.075 0.538v1.075h0.538v1.613h0.538v1.075h0.538v2.15h0.538v2.156h0.538v7.525h-0.538v2.688h-0.538q-0.269 1.613-0.538 3.225h-0.538c-0.18 0.715-0.359 1.435-0.538 2.15-0.359 0.177-0.717 0.36-1.075 0.538v1.075c-0.359 0.177-0.717 0.36-1.075 0.538v1.075q-1.613 1.344-3.225 2.688l-1.075 1.613h-1.075c-0.179 0.36-0.359 0.72-0.538 1.075h-1.075c-0.179 0.36-0.359 0.72-0.538 1.075q-1.344 0.274-2.688 0.538v0.538h-1.075v0.538h-2.15v0.538h-3.225c-3.11 0.898-8.374 0.543-12.363 0.538h-210.184c-6.988 0.005-19.029 1.075-24.727-0.538h-6.988v-0.538q-5.375-0.532-10.751-1.075v-0.538h-2.15v-0.538h-2.15v-0.538h-2.15v-0.538h-2.15v-0.538h-1.613v-0.538q-2.688-0.532-5.375-1.075v-0.538h-1.075v-0.538q-1.613-0.269-3.225-0.538v-0.538q-1.344-0.269-2.688-0.538v-0.538h-1.075v-0.538h-1.613v-0.538c-1.075-0.36-2.15-0.715-3.225-1.075v-0.538h-1.075v-0.538h-1.075v-0.538c-1.075-0.36-2.15-0.715-3.225-1.075-0.179-0.36-0.359-0.715-0.538-1.075-1.075-0.36-2.15-0.715-3.225-1.075-0.18-0.36-0.359-0.715-0.538-1.075h-1.075v-0.538h-1.075c-0.179-0.36-0.358-0.72-0.538-1.075h-1.075c-0.179-0.36-0.358-0.72-0.538-1.075h-1.075v-0.538c-0.538-0.183-1.075-0.36-1.613-0.538-0.179-0.36-0.359-0.72-0.538-1.075h-1.075l-1.075-1.613h-1.075q-0.806-1.080-1.613-2.15h-1.075l-2.15-2.693h-1.075l-5.913-6.45q-3.225-2.951-6.45-5.913v-1.075c-0.896-0.715-1.792-1.435-2.688-2.15v-1.075l-2.15-1.613v-1.075c-0.538-0.36-1.075-0.72-1.613-1.075v-1.075c-0.359-0.183-0.717-0.36-1.075-0.538v-1.075c-0.359-0.183-0.717-0.36-1.075-0.538v-1.075c-0.359-0.183-0.717-0.36-1.075-0.538v-1.075c-0.359-0.183-0.717-0.36-1.075-0.538v-1.075c-0.358-0.183-0.717-0.36-1.075-0.538-0.358-1.075-0.717-2.156-1.075-3.231-0.358-0.177-0.717-0.355-1.075-0.538v-1.075l-1.075-1.075v-1.075h-0.538v-1.075h-0.538v-1.075h-0.538v-1.075h-0.538q-0.538-1.613-1.075-3.225h-0.538c-0.18-0.898-0.359-1.79-0.538-2.688h-0.538v-1.075h-0.538v-1.613h-0.538v-1.075h-0.538v-1.613h-0.538v-1.613h-0.538v-1.613h-0.538v-1.613h-0.538v-1.613h-0.538q-1.881-8.603-3.763-17.206-0.269-5.644-0.538-11.288c-0.749-2.666-0.538-7.23-0.538-10.756v-496.768h-75.801c-2.741-0.826-6.979-2.264-9.138-3.763l-1.075-1.613h-1.075l-0.538-1.075-2.688-2.15v-1.075l-1.075-0.538-0.538-1.613h-0.538v-1.075h-0.538v-1.075h-0.538v-1.613h-0.538v-1.613h-0.538v-1.613h-0.538c-1.22-3.879 1.046-14.321 2.15-16.126l1.075-0.538 0.538-2.15 1.613-1.075v-1.075l1.075-0.538 2.15-2.688h1.075l0.538-1.075h1.075l0.538-1.075 2.15-0.538v-0.538h1.613c7.494-2.979 24.537-1.694 34.94-1.613l1.075-12.363h0.538v-4.3h0.538v-4.3h0.538v-4.3c1.445-4.963 1.257-11.747 2.688-16.667l0.538-8.601c1.881-6.474 1.351-15.028 3.225-21.506l0.538-8.601h0.538l1.075-12.901h0.538v-4.3h0.538v-4.3h0.538v-4.3h0.538v-4.3h0.538v-4.3c1.881-6.476 1.352-15.027 3.225-21.505q0.269-4.3 0.538-8.601h0.538q1.344-12.901 2.688-25.806c1.487-5.126 1.205-12.076 2.688-17.201v-4.3h0.538v-4.3h0.538v-4.3h0.538v-4.3c2.216-7.606 1.549-17.611 3.763-25.269v-4.3h0.538v-4.3h0.538v-4.3h0.538v-4.3h0.538v-4.3h0.538v-4.3h0.538v-4.3h0.538v-4.3h0.538q1.613-15.051 3.225-30.107h0.538v-4.3c1.877-6.475 1.315-15.047 3.225-21.505q0.269-2.956 0.538-5.913h0.538v-2.15h0.538v-1.613h0.538q0.269-1.881 0.538-3.763h0.538v-1.075h0.538q0.269-1.613 0.538-3.225h0.538q0.538-1.613 1.075-3.225h0.538v-1.075h0.538q0.538-1.613 1.075-3.225l1.075-0.538q0.269-1.075 0.538-2.15l1.075-0.538v-1.075l1.075-0.538v-1.075l1.613-1.075v-1.075l2.15-1.613v-1.075l3.763-3.225 4.838-5.375h1.075l1.613-2.15 1.613-0.538 0.538-1.075 14.513-8.063h1.613v-0.538h1.075v-0.538h1.613v-0.538h1.613v-0.538h2.15v-0.538h2.15v-0.538h2.15v-0.538h3.225c4.809-1.408 11.961-1.075 18.276-1.075h811.719c5.854 0 12.261-0.231 16.664 1.075h3.225v0.538h2.15v0.538h2.15v0.538h2.15v0.538h1.613v0.538h1.613v0.538h1.075v0.538h1.613v0.538l3.225 1.075v0.538h1.075v0.538h1.075v0.538h1.075v0.538l3.225 1.075c0.177 0.359 0.36 0.717 0.538 1.075h1.075c0.177 0.359 0.36 0.717 0.538 1.075h1.075c0.177 0.359 0.36 0.717 0.538 1.075h1.075c0.177 0.359 0.36 0.717 0.538 1.075h1.075c0.715 0.896 1.435 1.792 2.15 2.688 12.288 8.877 19.566 22.136 24.727 38.172q0.54 4.838 1.075 9.676h0.538v4.3h0.538v4.3c2.139 7.345 0.994 14.851 3.225 22.581v4.3h0.538q0.54 6.45 1.075 12.901c2.161 7.435 1.591 17.213 3.763 24.731v4.3h0.538v4.3h0.538v4.3h0.538v4.3h0.538v4.3h0.538v4.3h0.538v4.3h0.538v4.3c1.097 3.793 1.064 9.164 2.15 12.901v4.3c1.489 5.126 1.209 12.076 2.688 17.204v4.3c1.489 5.126 1.215 12.073 2.688 17.204v4.838h0.538q0.274 4.3 0.538 8.601c1.881 6.476 1.355 15.027 3.225 21.506v4.3h0.538v4.3h0.538v4.3h0.538v4.3h0.538v4.3h0.538q0.54 6.45 1.075 12.901c1.876 6.478 1.36 15.025 3.225 21.505v4.3h0.538q0.274 4.3 0.538 8.601c1.484 5.13 1.209 12.074 2.688 17.201v4.3h0.538v4.3h0.538v4.3h0.538v4.3h0.538q0.806 8.052 1.613 16.117zM86.9 368.313h190.295q20.964-167.186 41.928-334.406h-160.19l-15.051 0.538v0.538l-3.225 0.538v0.538l-2.15 0.538v0.538h-1.075q-0.269 0.538-0.538 1.075h-1.075l-0.538 1.075h-1.075l-1.613 2.15-1.075 0.538v1.075l-1.613 1.075v1.075l-1.075 0.538v1.075h-0.538v1.075h-0.538v1.613h-0.538v1.613h-0.538v1.613h-0.538q-0.538 6.182-1.075 12.363h-0.538v4.3h-0.538v4.838h-0.538v4.3c-1.864 6.484-1.368 15.019-3.225 21.506v4.3h-0.538v4.3h-0.538q-0.538 6.45-1.075 12.901h-0.538v4.3h-0.538v4.3h-0.538v4.3h-0.538v4.3h-0.538v4.3h-0.538v4.3h-0.538v4.3h-0.538v4.3h-0.538v4.3c-1.873 6.478-1.364 15.020-3.225 21.505q-0.269 4.3-0.538 8.601h-0.538q-0.806 8.601-1.613 17.204h-0.538v4.3h-0.538v4.3h-0.538v4.3h-0.538v4.3c-1.874 6.479-1.364 15.021-3.225 21.506v4.3h-0.538q-0.538 6.45-1.075 12.901c-1.872 6.479-1.365 15.020-3.225 21.506q-0.269 4.3-0.538 8.601h-0.538q-0.269 4.3-0.538 8.601c-1.87 6.48-1.367 15.019-3.225 21.506v4.3h-0.538v4.3h-0.538v4.3h-0.538v4.3h-0.538v4.3h-0.538v4.3h-0.538v4.3q-1.078 7.291-2.153 14.55zM367.504 33.907l-41.39 334.406h211.257v-334.406h-169.867zM585.212 33.907v334.406h211.261q-20.69-167.186-41.39-334.406h-169.871zM803.461 33.907q20.964 167.186 41.933 334.406h190.292q-1.347-9.138-2.688-18.28v-4.3h-0.538v-4.3h-0.538v-4.3h-0.538v-4.3h-0.538v-4.3h-0.538v-4.3h-0.538v-4.3h-0.538v-4.3h-0.538v-4.3h-0.538v-4.3c-1.876-6.476-1.36-15.022-3.225-21.505q-0.266-4.3-0.538-8.601c-1.876-6.477-1.36-15.022-3.225-21.505v-4.3h-0.538q-0.54-6.45-1.075-12.901h-0.538v-4.3h-0.538v-4.3c-1.876-6.477-1.36-15.021-3.225-21.505q-0.266-4.3-0.538-8.601h-0.538l-1.613-17.204h-0.538v-4.3h-0.538v-4.3h-0.538v-4.3h-0.538v-4.3h-0.538v-4.3h-0.538v-4.3h-0.538v-4.3c-1.876-6.478-1.365-15.021-3.225-21.505v-4.3h-0.538q-0.54-6.45-1.075-12.903h-0.538v-4.3h-0.538v-4.3h-0.538v-4.3h-0.538v-4.3h-0.538v-4.3c-1.871-6.48-1.365-15.020-3.225-21.505v-4.3h-0.538q-0.54-6.45-1.075-12.901h-0.538v-2.15h-0.538v-1.613h-0.538q-0.54-1.613-1.075-3.225h-0.538c-0.183-0.717-0.36-1.434-0.538-2.15q-1.080-0.806-2.15-1.613v-1.075l-1.075-1.075h-1.075l-1.613-2.15h-1.075c-0.183-0.359-0.36-0.717-0.538-1.075h-1.075v-0.538h-1.075v-0.538h-1.613v-0.538h-1.075v-0.538h-2.15v-0.538l-15.056-0.538h-159.653zM293.859 559.169h139.764c6.202 0 12.847-0.301 17.201 1.613v0.543q1.613 0.532 3.225 1.075v0.538h1.075l1.075 1.613h1.075q1.075 1.338 2.15 2.688c0.538 0.355 1.075 0.715 1.613 1.075v1.075c0.359 0.177 0.717 0.355 1.075 0.538 0.179 0.715 0.358 1.435 0.538 2.15 0.358 0.177 0.717 0.36 1.075 0.538v1.613h0.538v1.075h0.538q0.269 2.419 0.538 4.838h0.538q-0.269 4.838-0.538 9.676c-2.819 8.364-8.784 14.47-17.201 17.206q-5.913 0.266-11.826 0.538h-132.776c-4.6 0-10.119-0.253-13.438 1.075v0.538h-1.075v0.538q-1.613 0.54-3.225 1.075c-0.179 0.36-0.358 0.72-0.538 1.075h-1.075q-0.806 1.080-1.613 2.15-1.613 1.347-3.225 2.688v1.075c-0.359 0.183-0.717 0.36-1.075 0.538v1.075h-0.538c-0.359 1.075-0.717 2.156-1.075 3.231h-0.538v1.613h-0.538v2.15h-0.538v4.3c-0.524 1.865-1.277 9.192-0.538 11.826h0.538v27.42q-0.269 29.567-0.538 59.139v27.42h0.538v22.582c2.953 9.853 8.565 15.701 18.276 18.814h3.763c3.978 1.134 19.667 1.118 23.651 0h42.465c4.315 0 10.015-0.419 13.438 0.538h8.601c8.217 0 15.946-0.489 20.964 2.693 0.179 0.355 0.359 0.715 0.538 1.075h1.075l1.075 1.613h1.075c0.18 0.355 0.359 0.715 0.538 1.075l2.15 1.613v1.075c0.538 0.355 1.075 0.715 1.613 1.075q0.538 1.613 1.075 3.225h0.538v1.075h0.538v1.075h0.538v2.15h0.538c0.529 1.586 1.177 8.025 0.538 10.213h-0.538v2.688h-0.538v1.618h-0.538v1.075h-0.538v1.613c-0.359 0.177-0.717 0.355-1.075 0.538-0.18 0.715-0.359 1.43-0.538 2.15-0.538 0.355-1.075 0.715-1.613 1.075v1.075c-0.359 0.177-0.717 0.355-1.075 0.538-0.538 0.715-1.075 1.435-1.613 2.15h-1.075l-1.075 1.613h-1.075c-0.179 0.36-0.359 0.715-0.538 1.075-0.717 0.177-1.434 0.36-2.15 0.538v0.538c-5.217 2.29-13.586 1.613-20.964 1.613h-77.942q-9.138-0.266-18.276-0.538v-0.538c-1.792-0.177-3.584-0.36-5.375-0.538v-0.538h-2.15v-0.538h-1.613v-0.538h-1.613v-0.538h-1.613v-0.538c-1.075-0.177-2.15-0.36-3.225-0.538v-0.538c-1.075-0.36-2.15-0.715-3.225-1.075v-0.538h-1.075v-0.538h-1.075v-0.538h-1.075v-0.538h-1.075l-1.075-1.075h-1.075v-0.538c-0.538-0.183-1.075-0.36-1.613-0.538-0.179-0.36-0.358-0.72-0.538-1.075h-1.075c-0.179-0.36-0.359-0.72-0.538-1.075h-1.075c-0.179-0.36-0.359-0.72-0.538-1.075h-1.075q-0.806-1.080-1.613-2.15h-1.075q-2.15-2.427-4.3-4.843l-5.375-4.838v-1.075l-2.15-1.613v-1.075c-0.359-0.177-0.717-0.36-1.075-0.538q-0.269-0.806-0.538-1.613h-0.538v-1.075c-0.358-0.177-0.717-0.36-1.075-0.538v-1.075c-0.358-0.177-0.717-0.36-1.075-0.538v-1.075l-1.075-1.075v-1.075h-0.538v-1.075h-0.538v-1.075h-0.538v-1.075h-0.538l-1.075-3.225h-0.538c-0.179-1.075-0.359-2.156-0.538-3.231h-0.538v-1.613h-0.538v-1.613h-0.538v-1.613h-0.538v-2.15h-0.538c-0.18-1.79-0.359-3.585-0.538-5.375h-0.538q-0.269-7.523-0.538-15.051v-127.422c0-11.734-0.204-22.609 2.688-31.182v-2.15c7.55-21.276 21.481-36.816 41.39-45.696h1.613v-0.538h1.075v-0.538h1.613v-0.538h1.613v-0.538h1.613v-0.538h2.15v-0.538h2.15v-0.543h2.688v-0.538c2.201-0.656 7.186 0.161 8.6-1.075z"></path>
</svg>
