
<svg style="fill:#96b46f; stroke: #fff; stroke-width: 17px;"  xmlns="http://www.w3.org/2000/svg" viewBox="0 0 1024 1024" ><path d="M785.066 0C653.312 0 546.132 107.212 546.132 238.934S653.31 477.868 785.066 477.868 1024 370.654 1024 238.934 916.822 0 785.066 0zm0 409.6c-94.106 0-170.666-76.562-170.666-170.666S690.962 68.268 785.066 68.268s170.666 76.562 170.666 170.666S879.172 409.6 785.066 409.6zm170.668 375.466c0 94.106-76.562 170.666-170.666 170.666S614.402 879.17 614.402 785.066 690.964 614.4 785.068 614.4v-68.266c-131.754 0-238.934 107.212-238.934 238.934S653.312 1024 785.066 1024 1024 916.788 1024 785.066h-68.266zM409.6 238.934c0 94.106-76.562 170.666-170.666 170.666S68.268 333.038 68.268 238.934 144.83 68.268 238.934 68.268V0C107.178 0 0 107.212 0 238.934s107.178 238.934 238.934 238.934 238.934-107.212 238.934-238.934H409.6zm-170.666 307.2C107.178 546.134 0 653.346 0 785.066S107.178 1024 238.934 1024s238.934-107.212 238.934-238.934-107.18-238.932-238.934-238.932zm0 409.6c-94.106 0-170.666-76.562-170.666-170.666s76.562-170.666 170.666-170.666S409.6 690.964 409.6 785.068s-76.562 170.666-170.666 170.666zm180.668-911.6L238.934 224.802l-44.136-44.134-48.264 48.264 68.266 68.266a34.04 34.04 0 0 0 48.264 0l204.8-204.8-48.262-48.264zm546.132 546.134L785.066 770.936l-44.134-44.134-48.264 48.264 68.266 68.266a34.04 34.04 0 0 0 48.264 0l204.8-204.8-48.264-48.264z"/></svg>