<svg style="fill:#2dd5ff; stroke: #fff; stroke-width: 14px;"  xmlns="http://www.w3.org/2000/svg" height="512" width="512"><path d="M281.5 512h-139c-66.168 0-120-53.832-120-120V120c0-66.168 53.832-120 120-120h139c42.705 0 82.53 22.985 103.935 59.985 5.53 9.561 2.264 21.795-7.298 27.327s-21.796 2.264-27.326-7.297C336.532 55.333 309.974 40 281.5 40h-139c-44.112 0-80 35.888-80 80v272c0 44.112 35.888 80 80 80h139c44.112 0 80-35.888 80-80 0-11.046 8.954-20 20-20s20 8.954 20 20c0 66.168-53.832 120-120 120zm-68-135c-13.807 0-25 11.193-25 25 1.321 33.17 48.691 33.145 50 0 0-13.807-11.193-25-25-25zm210.773-230.731c-20.366-26.856-63.185-26.852-83.547 0C313.295 181.09 275.5 277.604 275.5 312.834c0 15.219 5.96 24.25 10.96 29.146 4.564 4.716 14.367 10.468 27.459 10.008 22.63-.474 52.012-16.667 68.584-27.046 16.991 10.615 47.173 27.253 70.201 27.049 13.427-.137 21.748-5.803 26.363-10.532 4.76-4.876 10.433-13.8 10.433-28.626 0-35.229-37.795-131.743-65.227-166.564zM401.5 289.606v-28.604c-1.056-26.536-38.953-26.516-40 0v29.877c-15.021 9.368-34.51 19.384-45.98 20.919.917-25.485 34.159-112.255 56.628-140.776 5.457-6.748 15.239-6.758 20.705 0h-.001c22.471 28.523 55.717 115.301 56.629 140.78-11.82-1.582-32.811-12.57-47.981-22.196z"/></svg>