<!-- Generated by IcoMoon.io -->
<svg version="1.1" xmlns="http://www.w3.org/2000/svg" width="1024" height="1024" viewBox="0 0 1024 1024">
<title></title>
<g id="icomoon-ignore">
</g>
<path fill="#000" d="M912 312.563l75.563-50.375c7.352-4.902 9.339-14.835 4.438-22.187v0c-4.901-7.352-14.835-9.339-22.187-4.438l-73.813 49.207-80-53.332v-71.438c0-8.836-7.163-16-16-16h-0.001c-8.836 0-16 7.163-16 16v71.438l-88.875 59.25c-4.451 2.967-7.125 7.963-7.125 13.313v87.438l-80 53.333-80-53.333v-87.438c0-5.35-2.674-10.346-7.125-13.313l-88.875-59.25v-87.438c0-5.35-2.674-10.346-7.125-13.313l-88.875-59.25v-7.438c0-8.836-7.163-16-16-16h-0.001c-8.836 0-16 7.163-16 16v7.438l-80 53.332-80-53.332v-7.438c0-8.836-7.163-16-16-16h-0.001c-8.836 0-16 7.163-16 16v7.438l-75.563 50.375c-7.352 4.902-9.339 14.835-4.437 22.187v0c4.901 7.352 14.835 9.339 22.187 4.438l73.813-49.207 80 53.332v78.875l-75.563 50.375c-7.352 4.902-9.339 14.835-4.438 22.187v0c4.902 7.352 14.835 9.339 22.187 4.438l73.813-49.208 80 53.333v78.875l-88.875 59.25c-4.451 2.967-7.125 7.963-7.125 13.313v87.438l-88.875 59.25c-4.451 2.967-7.125 7.963-7.125 13.313v87.438l-75.563 50.375c-7.352 4.902-9.339 14.835-4.437 22.188v0c4.901 7.352 14.835 9.339 22.187 4.438l73.813-49.207 80 53.332v71.438c0 8.836 7.163 16 16 16h0.001c8.836 0 16-7.163 16-16v-71.438l88.875-59.25c4.451-2.967 7.125-7.963 7.125-13.313v-87.438l80-53.333 80 53.333v87.438c0 5.35 2.674 10.346 7.125 13.313l88.875 59.25v87.438c0 5.35 2.674 10.346 7.125 13.313l88.875 59.25v7.438c0 8.836 7.163 16 16 16h0.001c8.836 0 16-7.163 16-16v-7.438l88.875-59.25c4.451-2.967 7.125-7.963 7.125-13.313v-96c0-5.35-2.674-10.346-7.125-13.313l-88.875-59.25v-78.875l80-53.333 73.813 49.208c7.352 4.901 17.286 2.915 22.187-4.438v0c4.902-7.352 2.915-17.286-4.438-22.188l-75.563-50.375v-78.875l80-53.332 73.813 49.207c7.352 4.901 17.286 2.915 22.187-4.438v0c4.902-7.352 2.915-17.286-4.438-22.187l-75.563-50.375zM720 312.563l80-53.332 80 53.332v78.875l-80 53.332-80-53.332zM784 551.438l-80 53.332-80-53.332v-78.875l80-53.332 80 53.332zM496 391.438l-80 53.332-80-53.332v-78.875l80-53.332 80 53.332zM240 152.563l80-53.332 80 53.332v78.875l-80 53.332-80-53.332zM240 472.563l80-53.332 80 53.332v78.875l-80 53.332-80-53.332zM304 711.438l-80 53.332-80-53.332v-78.875l80-53.332 80 53.332zM432 472.563l80-53.332 80 53.332v78.875l-80 53.332-80-53.332zM528 632.563l80-53.332 80 53.332v78.875l-80 53.332-80-53.332zM784 871.438l-80 53.332-80-53.332v-78.875l80-53.332 80 53.332z"></path>
</svg>
