<svg style="fill:#e23b63; stroke: #fff; stroke-width: 17px;"  xmlns="http://www.w3.org/2000/svg" height="512" viewBox="0 0 512.012 512.012" width="512"><path d="M512.012 253.996v89c-1.056 26.536-38.953 26.516-40 0v-39.51l-63.651 63.652a20 20 0 0 1-14.142 5.858H293.296L160.154 506.138c-7.81 7.811-20.474 7.811-28.284 0s-7.811-20.474 0-28.284l139-139a20 20 0 0 1 14.142-5.858h100.922l59-59h-42.922c-26.536-1.056-26.516-38.953 0-40h90c11.046 0 20 8.954 20 20zm-20 149c-11.046 0-20 8.954-20 20v69c1.056 26.536 38.953 26.516 40 0v-69c0-11.046-8.954-20-20-20zm-80 0c-11.046 0-20 8.954-20 20v69c1.056 26.536 38.953 26.516 40 0v-69c0-11.046-8.954-20-20-20zm-80 0c-11.046 0-20 8.954-20 20v69c1.056 26.536 38.953 26.516 40 0v-69c0-11.046-8.954-20-20-20zm-80 61c-11.046 0-20 8.954-20 20v8c1.056 26.536 38.953 26.516 40 0v-8c0-11.046-8.954-20-20-20zm-41-125c11.046 0 20-8.954 20-20v-12.284c62.696-23.208 47.556-115.437-20.001-116.716-26.592-1.085-26.463-38.759.001-39.857 8.03 0 14.441 4.254 17.59 11.673 4.316 10.167 16.058 14.909 26.226 10.594s14.91-16.058 10.594-26.226c-6.695-15.771-19.134-27.304-34.41-32.675v-13.51c-1.056-26.536-38.953-26.516-40 0v13.57c-62.606 23.207-47.675 115.147 20.001 116.43 26.443 1.095 26.611 39.042-.001 40.143-7.778 0-15.492-5.075-18.758-12.342-4.528-10.075-16.367-14.571-26.441-10.043s-14.572 16.366-10.043 26.441c6.826 15.187 19.908 26.854 35.242 32.395v12.406c0 11.047 8.954 20.001 20 20.001zm-69.004 68.475c8.042 0 15.627-4.887 18.678-12.846 3.955-10.313-1.201-21.88-11.515-25.834C-24.962 298.476 21.805 43.127 210.015 39.996c82.77 0 153.19 59.068 167.442 140.45 1.905 10.879 12.27 18.155 23.15 16.25s18.156-12.27 16.25-23.15c-8.418-48.07-33.655-92.02-71.063-123.753C210.97-65.443-.591 32.433.013 209.998-.995 295.363 55.022 376.485 134.852 406.14c2.356.903 4.775 1.331 7.156 1.331z"/></svg>