<svg class="svg-thm" xmlns="http://www.w3.org/2000/svg" width="1058.315" height="1061.561" viewBox="0 0 1058.315 1061.561">
  <path style="fill:#555;  stroke: #fff; stroke-width: 7px;"     d="M677.135,40.751v2l6,1v1h4v1h3v1h4v1h2v1l9,2v1h2v1l6,1v1h2v1h3v1h2v1h3v1l5,1v1h2v1h3v1h2v1h2v1h2v1h3v1l4,1v1h2v1h3l1,2h3l1,2h3l1,2h3l1,2h3l1,2h3l1,2h2v1h2l2,2h2l1,2,6,2q0.5,1,1,2l6,2v1l3,1q0.5,1,1,2l6,2q0.5,1,1,2h2v1l3,1,1,2h2l1,2h2q0.5,1,1,2h2q0.5,1,1,2h2v1l3,1q0.5,1,1,2h2l2,3h2q0.5,1,1,2h2q1,1.5,2,3.005h2l2,3h2l2,3.005h2l2,3h2q0.5,1,1,2h1q0.5,1,1,2h2l4,5.008h2l5,6.008h2q2.5,3,5,6.009l3,1,12,13.019h2q1.5,2,3,4.006l9,8.012v2l8,7.01q2.5,3,5,6.009l2,1v2l6,5.007v2l6,5.008v2l4,3v2l4,3v2l2,1,1,3,4,3v2l3,2v2l3,2v2h1q0.5,1.5,1,3l2,1v2l3,2v2l2,1v2l2,1v2l2,1v2l2,1v2l2,1q0.5,2,1,4.006h1l1,3,2,1q0.5,2,1,4.006l2,1q0.5,2,1,4.006l2,1q0.5,2,1,4.006l2,1q1,3,2,6.009l2,1v3l2,1v2h1v2h1v2l2,2v2l2,1q0.5,2.5,1,5.007h1v2h1v2h1v2h1q1,3,2,6.009h1v3h1v2h1v2h1c0.33,1.335.67,2.67,1,4.006h1v3h1c0.33,1.335.67,2.671,1,4.006h1v3h1c0.33,1.335.67,2.67,1,4h1q1,4.507,2,9.014h1q0.51,2.5,1,5.007h1v2h1q1,4.506,2,9.014h1v2h1v4.006h1v2h1v4h1.01v3h1v4.006h1v2h1v5.007h1v2h1v5.008h1v3c0.74,2.023,4.01,9.766,3,13.02h-1v3h-1v2c-0.67.334-1.34,0.668-2,1v2h-1c-2.4,2.7-.02.307-3,2v1h-2.01v1h-5c-0.3.071-.29,1.31-2,1v-1h-5v-1c-7.27-2.179-7.44-8.112-10-15.022h-1V413.3h-1c-0.33-2.336-.67-4.674-1-7.01h-1v-3h-1v-4.006h-1v-2h-1v-4.006c-11.874-32.469-23.919-64.024-41.01-91.135l-2-6.009-2-1v-2h-1v-2l-2-1q-0.5-2-1-4.006l-2-1v-2h-1v-2l-2-1v-2l-2-1v-2l-2-1v-2l-2-1v-2h-1q-0.5-1.5-1-3l-2-1v-2l-2-1v-2l-2-1-1-3-3-2v-2l-2-1v-2l-4-3q-0.5-1.5-1-3.005l-2-1v-2l-4-3v-2l-4-3v-2l-4-3.005v-2l-7-6.008c-6.5-8.987-14.285-16.309-22.006-24.036l-8-9.014h-2l-11-12.017h-2l-4-5.008h-2l-5-6.009h-2q-1.5-2-3-4.006h-2l-3-4.006h-2l-2-3h-2q-1-1.5-2-3h-2l-2-3h-2l-2-3h-2v-1l-3-1q-0.5-1-1-2h-2q-1-1.5-2-3h-2q-0.5-1-1-2h-2q-0.5-1-1-2l-3-1v-1h-2v-1h-2q-0.5-1-1-2l-4-1v-1l-3-1q-0.5-1-1-2l-4-1q-0.5-1-1-2l-4-1q-0.5-1-1-2h-2v-1h-2l-2-2h-2l-1-2h-2l-2-2h-2v-1h-2v-1h-2v-1l-4-1-1-2h-3l-1-2h-3v-1h-2v-1l-4-1v-1h-3l-1-2h-3v-1h-2v-1l-4-1v-1l-18-6.009v-1h-2v-1l-6-1v-1h-2v-1h-3v-1h-3v-1h-3v-1l-7-1v-1l-5-1c0.822,3.492,3.076,5.1,4,8.012,2,6.282-3,11.214-4,15.022-3.167.8-4.731,3.183-7,4.006h-10c-1.59-2.441-1.026-.605-3-2l-1-2-3-1v-2l-6-5.007v-2l-6-5.007v-2l-5-4.006v-2l-6-5.007v-2l-4-3v-1l-2-1v-2l-5-4.006v-2h-1c-1.59-2.962-1.929-6.563-2-11.016h1v-3h1v-2h1q0.5-1.5,1-3l3-1v-1h2l1-2h3v-1h2v-1l4-1v-1h3v-1l4-1v-1h3v-1h2v-1h2v-1l6-2v-1h3v-1h2v-1h3v-1l4-1v-1h2v-1h3l1-2h10c2.181,2.99,1.431.414,4,2l3,4.006h1C693.984,25.982,687.29,38.391,677.135,40.751Zm273.071,602.9H918.2a85.97,85.97,0,0,1,3-11.016v-4.006h1v-5.007h1q1-7.51,2-15.023h1v-8.012c3.487-11.953,3.8-27.087,4-42.062H883.188c-5.974,0-12.325.278-16-2q-0.5-1-1-2h-2v-1c-1.489-1.366-1.326-.506-2-3-2.9-2.363-3.942-11.054-1-14.021,2.436-9.335,12.135-9.013,24.006-9.013H929.2c1.6-4.3,1.05-12.138,1-18.027h-1v-8.012h-1V490.419h-1v-5.008h-1V477.4c-1.321-4.5-2.614-11.544-4-16.023v-5.008h-1q-0.5-4.005-1-8.012h-1q-0.5-4-1-8.012h-1v-4.006h-1q-0.5-3.5-1-7.01h-1v-3h-1v-4h-1v-2h-1v-4.006h-1v-2h-1V410.3h-1v-2h-1l-2-9.014h-1q-0.5-2-1-4.006l-9-6.009h-2q-0.5-1-1-2l-4-1q-0.5-1-1-2h-2l-2-2h-2v-1h-2v-1h-2v-1h-2v-1h-2v-1l-4-1q-0.5-1-1-2h-3v-1h-2v-1l-4-1v-1h-3q-0.5-1-1-2h-3q-0.5-1-1-2h-3v-1h-2v-1h-3v-1l-4-1v-1h-3v-1l-4-1v-1h-3v-1h-2v-1l-6-1v-1h-2v-1h-3v-1l-6-1v-1h-2v-1l-5-1v-1h-4v-1h-2v-1h-4v-1h-2v-1h-4v-1h-3v-1h-4v-1h-2v-1h-4v-1h-3v-1l-7-1v-1l-7-1v-1l-12-2c-5.142-1.746-10.24-3.74-17-4.006q1.5,10.515,3,21.031h1v8.012h1v5.008h1q1,10.515,2,21.031h1v7.01h1v8.012h1v9.014c2.024,7.036,2.815,17.532,3,26.038H710.144c-0.2-6.62-1.415-16.5-3-22.032v-9.014h-1v-8.012h-1v-7.01h-1v-8.012h-1v-6.009h-1q-0.5-6.007-1-12.018h-1v-7.01h-1v-5.008h-1V341.2h-1l-3-20.03c-2.613-1.384-1.694-1.771-6-2v-1h-7v-1l-13-1v-1h-5v-1h-9v-1h-6v-1h-10v-1h-7v-1h-11v-1l-14-1h-11v-1h-12v-1H553.1v-1h-8c-2.683,7.354-1,20.859-1,30.045v65.1H513.093V307.146c-3.317-1.758-4.369-2.061-10-2-4.575,3.841-22.873-1.029-30.007,1v1l-17.005,1h-10v1h-9v1h-12c-11.168,3.207-26.047,2.832-37.009,6.009h-8v1h-4v1c-4.524,1.378-9.084-.657-12,2h-1c-0.054,4.176-1.174,6.337-2,9.013v6.009h-1v4.006h-1q-0.5,5.508-1,11.016h-1v8.012h-1v4.006h-1q-0.5,6.51-1,13.02h-1q-0.5,7.01-1,14.02h-1v9.014h-1v7.01h-1v10.015h-1v8.012h-1v12.018h-1q-0.5,6.509-1,13.019v11.017h-1v14.02c-1.547,5.451.718,14.977-1,21.032-2.384,8.4-.879,21.9-1,32.047,3.609,1.318,9.887,1,15,1H483.085V558.52H342.049v33.049c1.355,4.87-.532,13.521,1,19.028h1v15.022h-1q-0.5,2.5-1,5.008c-2.437,1.36-3.3,3.831-5,5.007-1.669,1.159-2.292-.016-4,2-5.921.091-8.767-1.115-13-2l-4-5.007h-1q-0.5-2.5-1-5.008h-1V611.6h-1V593.572c-2.5-8.934-.988-23.344-1-34.051-4.588-1.673-12.817-1-19-1H126.993a12.74,12.74,0,0,0-1,5.007c2.79,3.32-.387,11.138,1,16.024h1v9.013h1v8.012h1v7.011h1v7.01h1v5.008h1v5.007h1v6.009h1q1.5,8.511,3,17.025h1q0.5,3.505,1,7.011h1v3h1v4.006h1v3h1v4h1v2h1v4.006h1v2h1V676.7h1q0.5,2.5,1,5.008h1v2h1v4.006h1v2l9,6.009h2q0.5,1,1,2l6,2q0.5,1,1,2h2l2,2h2v1h2v1h2q0.5,1,1,2h3q0.5,1,1,2h3q0.5,1,1,2h3v1h2v1h2v1l6,2v1h3v1h2v1l6,2v1h3v1h2v1h3v1h2v1l5,1v1h3v1h2v1h3v1h2v1l9,2v1h2v1h4v1h2v1h4v1h2v1h4v1h2v1h4v1h2v1h4v1h3v1h4c7.664,2.753,17.1,5.341,25.007,8.012l9,1v1l10,2c-0.1-4.441-1.1-6.936-2-10.015v-7.01h-1v-4.006h-1q-0.5-5.508-1-11.016h-1v-9.014h-1v-5.007h-1q-0.5-7.01-1-14.021h-1v-7.01c-0.139-1.69-1-2-1-2-1.079-5.084,4.172-12.339,7-14.021,1.9-2.015.729,0.059,3-1v-1h2v-1c6.89-2.392,10.978,2.891,15,4.006,0.558,2.319.89,2.418,2,4.006h1q0.5,3.505,1,7.011h1v9.013h1q0.5,7.01,1,14.021h1q0.5,6.509,1,13.019h1q0.5,6.009,1,12.018h1v4.006h1v7.01h1v4.006h1v6.009h1c1.043,3.192-.041,5.871,2,8.012v1c3.617,0.132,5.635,1.281,8,2h7v1h5v1h8v1h6v1h9v1h6v1h10v1h8v1h12v1l40.01,2v31.046l-42.011-2v-1h-12v-1h-8v-1h-10v-1h-6v-1h-9v-1l-24.007-3c-0.844,1.136.127,0.145-1,1q0.5,2.5,1,5.008h1q0.5,3.5,1,7.01h1q0.5,4.007,1,8.012h1q0.5,3.505,1,7.01h1v3h1v4.006h1v2h1v4.006h1v3h1v4.006h1v2h1v4.006h1v2h1v4.006h1v2h1l2,9.013h1q0.5,2.5,1,5.008h1v2h1q1,4.506,2,9.013h1q0.5,2,1,4.006h1v2h1q0.5,2.5,1,5.008h1v3h1q0.5,2,1,4.006h1v2h1v2h1v3h1l2,6.009h1v2h1v2h1c1.841,3.434,1.836,6.967,5,9.014v1l6,1v1h4v1h4v1h4c15.407,5.064,31.553,6.835,52.013,7.011v33.049l-13-1v-1h-10v-1l-12-1v-1h-4v-1h-7v-1h-5v-1h-4v-1h-4v-1h-5v-1h-4v-1h-4v-1h-3v-1l-10-2v-1h-5v-1h-2v-1h-3v-1h-3v-1h-3v-1l-7-1v-1h-2v-1h-3v-1l-5-1v-1h-2v-1h-3v-1h-2v-1h-3v-1h-2v-1h-3v-1l-4-1v-1l-5-1v-1l-6-2v-1h-2v-1h-2v-1h-2v-1h-2v-1h-2v-1h-2v-1h-2v-1h-2l-2-2h-2q-0.5-1-1-2l-6-2q-0.5-1-1-2l-6-2q-0.5-1-1-2l-6-2q-0.5-1-1-2h-2q-0.5-1-1-2h-2v-1l-3-1q-0.5-1-1-2h-2l-1-2h-2v-1l-3-1q-0.5-1-1-2h-2l-2-3h-2v-1l-3-1q-0.5-1-1-2h-2q-1.5-2-3-4.006h-2l-3-4.006h-2l-2-3h-2q-1.5-2-3-4.006h-2l-6-7.011h-2q-2.5-3-5-6.009l-3-1-10-11.016-17-16.024v-2l-7-6.009v-2l-7-6.009v-2l-3-2v-2l-4-3v-2l-4-3.005v-2l-3-2v-2l-3-2v-2h-1l-1-3-2-1v-2l-3-2v-2l-2-1q-0.5-1.5-1-3h-1v-2l-2-1q-0.5-2-1-4.006l-2-1v-2l-2-1v-2l-2-1q-0.5-2-1-4.006l-2-1v-2l-2-2v-2l-2-1q-1-3-2-6.009l-2-1v-3l-2-1v-3l-2-1v-3.005l-2-1q-0.5-2-1-4.006h-1q-0.5-2-1-4.006h-1v-3h-1v-2h-1q-1-3-2-6.009h-1v-3h-1q-0.5-2-1-4.006h-1q-0.5-2.5-1-5.008h-1q-0.5-3-1-6.008h-1q-0.5-2.5-1-5.008h-1v-2h-1v-3h-1v-2h-1v-4.006h-1v-2h-1V677.7h-1v-2h-1v-4.006h-1v-2h-1v-5.008h-1v-2h-1v-5.008h-1v-3h-1q-0.5-3.505-1-7.011h-1v-5.007h-1q-0.5-4.506-1-9.014h-1v-4.006h-1q-0.5-5.507-1-11.016h-1q-1.5-14.019-3-28.042h-1V580.553h-1V566.532c-2.141-7.751-2.188-39.347,0-47.07V503.438h1l1-17.025h1V478.4h1v-6.009h1v-6.009h1q0.5-5.508,1-11.016h1v-4.006h1q0.5-4.507,1-9.014h1V437.34h1v-3h1v-5.007h1v-2h1v-5.007h1v-2h1v-5.008h1v-2h1V409.3h1v-2h1v-4.006h1v-2h1V397.28h1v-2h1v-4.006h1q0.5-2.5,1-5.007h1v-2h1v-3h1v-2h1v-3h1q0.5-2,1-4.006h1v-3h1q0.5-2,1-4.006h1q0.5-2.5,1-5.008h1l2-6.009h1v-2h1v-2h1v-2h1v-2h1v-2l2-2v-2l2-1v-3l2-1q1-3,2-6.009l2-1q1-3,2-6.009l2-1q0.5-2,1-4.006l2-1q0.5-2,1-4.006l2-1v-2h1q0.5-1.5,1-3l2-1v-2h1q0.5-1.5,1-3l2-1v-2l3-2v-2h1l1-3,2-1v-2l3-2v-2l3-2v-2l4-3v-2l4-3v-2l4-3v-2l7-6.009v-2l5-4.006q1-1.5,2-3h1v-2l6-5.007c4.826-4.834,10.428-14.513,19-15.023v-1c1.359-.768,10.323,1.6,11,2q0.5,1,1,2h2a9.334,9.334,0,0,0,2,4.006h1q0.5,6.508,1,13.019h-1c-1.516,6.134-7.137,9.149-11,13.02l-5,6.008-3,2v2l-10,9.014v2l-5,4.006v2l-5,4.006v2l-2,1q-0.5,1.5-1,3l-4,3v2l-2,1v2l-4,3.005v2l-2,1-1,3h-1v2l-2,1v2l-2,1v2l-2,1v2l-2,1q-0.5,2-1,4.006l-2,1v2l-2,1q-0.5,2-1,4.006c-1.739,3.146-3.4,3.057-4,8.011h1v-1h3l1-2h3q0.5-1,1-2h3v-1h2v-1l4-1v-1h3v-1h2v-1h2v-1h2v-1h3v-1h2v-1l5-1v-1l6-1v-1l4-1v-1l6-1v-1h2v-1l9-2v-1h2v-1h4v-1h2v-1h4v-1h2v-1h4v-1h2v-1h4v-1h3v-1h4v-1h2v-1h5v-1h2v-1h5v-1h3v-1l7-1v-1h5a286.677,286.677,0,0,1,35.009-9.013c2.727-7.87,4.393-17.447,7-25.038q0.5-4.005,1-8.011h1q0.5-3.505,1-7.011h1v-3h1v-4.006h1v-2h1v-4.006h1v-3h1v-4.006h1v-2h1v-4.006h1v-2h1v-4h1v-2h1V215.01h1v-2h1q1-4.507,2-9.014h1v-2h1v-3h1v-2h1q0.5-2.5,1-5.008h1v-3h1v-2h1v-3c2.1-4.738,5.272-8.719,6-15.023h-1c-2.3,2.483-2.226.734-5,2v1h-2v1l-4,1v1h-3v1l-4,1v1h-2v1h-2v1h-2v1h-2v1h-2v1h-2v1h-2v1h-2v1h-2v1l-4,1q-0.5,1-1,2h-3q-0.5,1-1,2l-6,2v1l-3,1q-0.5,1-1,2l-4,1q-0.5,1-1,2l-4,1q-0.5,1-1,2h-2q-0.5,1-1,2h-2q-0.5,1-1,2h-2q-0.5,1-1,2h-2q-0.5,1-1,2h-2v1c-3.4,1.859-6.677,1.9-12,2a16.65,16.65,0,0,0-7-4.006,8.355,8.355,0,0,0-2-4.006h-1v-2h-1V193.978q2.5-3.5,5-7.01h2q0.5-1,1-2h2l2-3h2q0.5-1,1-2l3-1v-1h2q0.5-1,1-2l4-1q0.5-1,1-2l4-1q0.5-1,1-2l4-1q0.5-1,1-2l6-2q0.5-1,1-2l6-2q0.5-1,1-2h3q0.5-1,1-2h3q0.5-1,1-2l4-1v-1l4-1v-1h3v-1h2v-1h2v-1h2v-1l6-2v-1h3v-1h2v-1h3v-1l5-1v-1h2v-1h3v-1h2v-1h3v-1h2v-1h4v-1h2v-1h4v-1h2v-1h4v-1h2v-1h5v-1h2v-1h4v-1h3v-1l7-1v-1h5v-1h3v-1h5v-1h5v-1h4v-1h5v-1h6c7.608-2.258,18.151-2.74,26.007-5.007l24.006-1c10.066-2.8,26.126-1,38.01-1h15v1h11v1h11v1h7v1h9v1h6v1h5v1h6v1h5v1h5v1h4v1h5v1h3v1h5v1h3v1l7,1v1h5v1h2v1h4v1h2v1h4v1h2v1h4v1h2v1h4v1h2v1h3v1h2v1h3v1h2v1l5,1v1h3v1h2v1h3v1l6,2v1h2v1h3v1l6,2v1h2v1h2v1h2v1h2v1h2l2,2h2q0.5,1,1,2h3q0.5,1,1,2l6,2q0.5,1,1,2l3,1v1h3v1l3,1q0.5,1,1,2l4,1q0.5,1,1,2h2q0.5,1,1,2h2v1l3,1q0.5,1,1,2h2q0.5,1,1,2h2v1l3,1q0.5,1,1,2h2q0.5,1,1,2l3,1,2,3h2q0.5,1,1,2h2q1.5,2,3,4.006h2l3,4.006h2l3,4.006h2q2.5,3,5,6.009h2l6,7.011h2l11,12.017c6.974,6.987,14.116,12.864,20,21.032l5,4.006v2l7,6.008v2l3,2v2l4,3v2l4,3v2l3,2v2q1.5,1,3,2v2h1q0.5,1.5,1,3l2,1v2l3,2v2l2,1v2l2,1q0.5,1.5,1,3h1q0.5,2,1,4.006h1l1,3,2,1v2h1v2l2,1q1,3,2,6.009l2,1,2,6.009,2,1v2l2,2,7,16.023,2,1v3h1v2h1q0.5,2,1,4.006h1v3h1v2h1q0.5,2,1,4.006h1v3h1v2h1v3h1v2h1q0.5,2.5,1,5.007h1v3h1v2h1v4.006h1v2h1v4.006h1v2h1V409.3h1v2h1v4.006h1v3h1v4.006h1v3h1v3h1v4.006h1v4.006h1v4.006h1v4.006h1q0.5,4.506,1,9.014h1v5.007c1.394,4.482,2.666,11.523,4,16.024v8.012h1v7.01h1v10.015h1v10.015h1v24.036c0.168,1.941,1,2,1,2q-0.5,12.518-1,25.037v16.024h-1v10.014h-1v10.015h-1v6.009h-1V611.6h-1q-0.5,5.506-1,11.016h-1v4.006h-1v6.009C952.2,635.872,950.633,639.474,950.206,643.646ZM419.069,154.92l-1,3.005h-1v3l-2,1v3l-2,1v3l-2,1v3h-1v2h-1v2h-1l-2,6.009h-1v3h-1v2h-1v3h-1q-0.5,2-1,4.006h-1v3h-1v2h-1v3h-1v2h-1v3h-1v2h-1q-1,4.506-2,9.014h-1v2h-1v4h-1v2h-1v3.005h-1l-3,13.019h-1v2h-1v4.006h-1v3h-1q-0.5,3.5-1,7.01h-1q-0.5,3.505-1,7.01h-1v4.006c-1.832,5.1-3.821,9.782-4,17.026A872.558,872.558,0,0,1,512.093,274.1c2.906-7.979,1-30.425,1-41.061V140.9c-2.652-1-6.946-1.043-11-1-3.767,3.15-16.174.323-22.006,2-7.562,2.178-17.682,2.8-25.006,5.007h-6v1h-4v1l-9,1v1h-5v1l-8,1v1ZM544.1,274.1h11v1h29.007v1h13v1h15v1h9v1h13v1l17,1v1h5v1l15,1v1h7v1c2.491,0.723,4.088.214,6,1v-1h1v-3c-1.679-2.015-.98-5.3-2-8.012h-1v-4.006h-1v-4.006h-1v-4.006h-1v-3h-1v-3h-1v-4.006c-9.26-25.415-16.971-52.494-29.007-75.111v-2h-1v-2h-1v-3.005h-1q-0.5-2-1-4.006h-1q-0.5-2-1-4.006l-2-1v-3.005l-2-1c-1.386-2.024.459-1.431-2-3.005-2.621-2.495-4.267-.735-8-2v-1h-3v-1h-5v-1h-3v-1h-5c-6.437-2.011-15.348-3.065-22-5.007h-7v-1h-7v-1h-11c-5.515-1.569-13.111-1.917-20-2v1h-1V274.1ZM680.136,169.943c0.085,2.554.1,3.52,1,5.007h1q0.5,2.5,1,5.008h1v3h1v2h1v3h1q0.5,2.5,1,5.008h1v2h1v3h1v2h1v3h1v2h1V209h1v2h1l2,9.013h1v2h1v4.006h1v3h1v3h1v3h1v3.005h1v3h1v4.006h1v3h1v3h1v4.006h1v3.005h1q0.5,3.5,1,7.01h1v5.007h1v3h1V278.1h1q1.5,7.511,3,15.023c4.142,0.254,7.828,1.957,11,3h5c7.357,2.434,16.688,4.475,24.006,7.011h4v1h4v1h3v1h4l63.016,21.031v1h2v1h3v1l4,1v1h3v1l4,1v1h3v1h2v1h3q0.5,1,1,2h3v1l9,3v1c1.421,0.867,1.727.687,4,1-0.271-2.247-.087-2.647-1-4.006h-1v-2l-2-1v-3l-2-1v-2l-2-1v-2l-2-1v-2l-2-1q-0.5-2-1-4.006l-2-1v-2l-2-1v-2q-1.5-1-3-2v-2h-1q-0.5-1.5-1-3l-2-1v-2l-3-2v-2l-4-3-1-3-2-1v-2l-2-1-1-3-6-5.007v-2l-7-6.009v-2q-9.5-9.012-19-18.027l-12-13.019h-2l-5-6.009h-2q-2.5-3-5-6.009h-2q-0.5-1-1-2l-3-1-3-4h-2q-1.5-2-3-4.006h-2q-0.5-1-1-2l-3-1v-1h-2l-2-3h-2q-0.5-1-1-2l-3-1v-1h-2q-0.5-1-1-2h-2q-0.5-1-1-2h-2q-0.5-1-1-2h-2q-0.5-1-1-2h-2v-1h-2q-0.5-1-1-2l-4-1q-0.5-1-1-2l-6-2q-0.5-1-1-2h-2l-2-2h-2v-1h-2v-1h-2l-1-2h-3q-0.5-1-1-2l-9-3.005v-1h-2v-1h-2v-1l-6-2v-1h-3C684.493,171.765,684.335,170.44,680.136,169.943ZM330.046,327.176c-6.3.081-12.182,2.338-17,4.006l-12,2v1h-3v1l-7,1v1l-7,1v1h-4v1h-3v1h-4v1h-2v1h-4v1h-2v1h-4v1h-2v1h-4v1h-2v1h-4v1h-2v1h-3v1h-2v1l-6,1v1h-3v1l-4,1v1l-5,1v1h-3v1h-2v1h-3v1l-4,1v1h-2v1h-3q-0.5,1-1,2h-3v1l-4,1v1h-2v1h-3q-0.5,1-1,2h-3q-0.5,1-1,2h-3l-1,2-4,1v1h-2v1h-2v1h-2l-2,2h-2l-1,2-6,2q-0.5,1-1,2h-2v1h-2q-0.5,1-1,2h-2v1c-2.706,1.718-1.864-.953-3,3h-1v4.006h-1v2h-1v3h-1v2h-1V412.3h-1v2h-1v4.006h-1v2h-1v4h-1v2h-1v5.008c-9.2,26.847-14.761,60.83-16,95.141,4.588,1.673,12.817,1,19,1H309.04c3.989-7.711,2.075-24.945,2-36.054,2.262-2.691.894-11.49,1-16.024V471.39h1V456.368h1V442.347h1V432.332h1V420.315h1V412.3h1V401.286h1v-7.01h1q0.5-7.01,1-14.021h1v-9.013h1v-5.008h1q0.5-6.508,1-13.019h1V346.2C327.64,340.833,329.675,333.483,330.046,327.176Zm37.009,679c-0.631-4.64-5.284-9.123-3-16.019h1v-3h1a8.933,8.933,0,0,0,2-4l3-1v-1h2v-1l9-1v1h3l7,5.007v2l4,3v2l2,1v1l2,1v2q2,1.5,4,3.009v2c1,0.67,2,1.33,3,2v2q2,1.515,4,3.01v2c1.333,1,2.667,2.01,4,3.01v2l4,3v2.01l4,3v2c0.666,0.34,1.333.67,2,1.01,0.334,1.33.667,2.67,1,4h1c2.619,7.29-2.93,11.86-4,16.03-3.107.72-4.568,2.9-7,4h-3v1q-2.5.51-5,1v1.01c-1.334.33-2.668,0.66-4,1v1h-3v1h-2v1h-3v1h-2v1.01h-3v1h-2v1c-1.667.33-3.334,0.67-5,1v1h-3v1h-2v1h-3v1.01h-2v1h-3c-0.333.66-.667,1.33-1,2h-11c-1.556-2.45-1.14-.61-3-2l-4-5.01h-1c-1.156-1.67.007-2.29-2-4.01v-9.01h1v-2h1v-2.01h1l1-3c3.673-.89,5.053-3.1,9-4.01v-2c-3-.67-6-1.33-9-2v-1h-2v-1.01h-4v-1h-2v-1h-3v-1h-2v-1h-3v-1q-2.5-.51-5-1v-1.01c-1.333-.33-2.667-0.66-4-1v-1h-3v-1c-1.333-.33-2.667-0.67-4-1v-1h-3v-1l-6-2.01v-1c-1.667-.33-3.334-0.67-5-1v-1h-2v-1h-2v-1h-2v-1.01h-2v-1h-2v-1h-2v-1h-2v-1h-2v-1h-2v-1.01h-2l-2-2h-2c-0.334-.67-0.667-1.33-1-2h-3c-0.333-.67-0.666-1.34-1-2q-3-1.008-6-2.007-0.5-1-1-2l-6-2q-0.5-1-1-2l-4-1q-0.5-1-1-2l-4-1q-0.5-1-1-2l-4-1-1-2h-2v-1l-3-1q-0.5-1-1-2h-2q-0.5-1-1-2h-2q-0.5-1-1-2h-2v-1l-3-1q-0.5-1-1-2h-2l-2-3h-2l-2-3h-2q-0.5-1-1-2h-2l-2-3h-2q-1.5-2-3-4.006h-2l-2-3h-2q-1-1.5-2-3h-2q-2.5-3-5-6.009h-2l-3-4h-2l-6-7.011h-2v-1l-4-3-9-10.015h-2l-5-6.009-11-10.014v-2l-12-11.017v-2L133,884v-2l-6-5.007v-2l-4-3v-2l-4-3v-2l-4-3v-2l-4-3v-2l-2-1v-2l-2-1-1-3-3-2v-2l-2-1v-2h-1l-1-3-2-1v-2l-3-2v-2l-2-1-1-3h-1l-1-4-2-1-1-4.006-2-1-1-3h-1l-2-6.009h-1l-1-3-2-1-1-4.006-2-2v-2l-2-1v-2l-2-2v-2h-1v-2h-1v-2l-2-1v-3l-2-1v-3l-2-1v-3l-2-1v-3l-2-1v-3h-1v-2h-1l-1-4.006h-1v-3l-2-1v-3h-1v-2h-1v-3h-1l-1-4h-1v-3h-1v-2h-1v-3h-1v-2h-1v-3h-1v-2h-1l-2-9.013h-1v-2h-1l-1-6.009h-1v-3h-1v-3h-1v-3h-1v-3h-1v-4.006h-1v-3h-1v-4.006h-1v-2h-1l-1-8.012h-1v-5.008h-1v-2h-1v-5.007h-1l-1-9.013h-1V652.66h-1v-5.008h-1l-1-11.016h-1c-1.055-3.281-1.188-9.043,0-12.018h1v-3h1l4-5.008c1.673-1.157,2.278,0,4-2h10c1.682,2.056,2.322.841,4,2l5,6.009v2h1v5.007h1v4.006h1l1,10.015h1v6.009h1v3h1v6.009h1v3h1v5.007h1v2h1l2,12.018h1v3h1v4.006h1v2h1l2,10.015h1v2h1v4.005h1v2h1l1,6.009h1v2h1q0.5,3,1,6.009h1v2h1v3h1l1,4.006h1v3h1l1,5.008h1v2h1v3l2,1v3l2,1v3h1v2h1v2h1v2h1v2h1v2h1v2h1v2h1v2h1v2h1v2l2,2v2l2,1v2h1v2h1v2l2,2v2l2,1q0.5,2,1,4.006l2,1q0.5,2,1,4.006l2,1q0.5,2,1,4.006l2,1v2l2,1v2l2,1v2l2,1q0.5,2,1,4.006l3,2v2l2,1,1,3h1v2l2,1v2q1.5,1,3,2v2l3,2v2l3,2v2l3,2v2l4,3v2l4,3v2l5,4.006v2l6,5.007v2l11,10.015v2l9,8.012,9,10.015h2l12,13.019h2l2,3,3,2v1h2q2.5,3,5,6.009h2l3,4.006h2q0.5,1,1,2l3,1q1.5,2,3,4.006h2l2,3h2l2,3h2v1l3,1q0.5,1,1,2h2l2,3h2l1,2h2l2,3,4,1v1l3,1q0.5,1,1,2l4,1q0.5,1,1,2h2q0.5,1,1,2l4,1q0.5,1,1,2l4,1q0.5,1,1,2l4,1q0.5,1,1,2h3q0.5,1,1,2l6,2q0.5,1,1,2h3q0.5,1,1,2h3q0.5,1,1,2l4,1v1l4,1v1h3v1h2v1h2v1l6,2v1h3v1h2v1l4,1v1h3v1l4,1v1Q355.051,1002.174,367.055,1006.18ZM178.006,739.789c0.761,3.548,2.613,4.5,4,7.01q0.5,2,1,4.006l2,1v2l2,1v2l2,1q0.5,2,1,4.006h1l1,3,2,1v2h1l1,3,2,1v2l3,2v2l2,1v2l3,2v2l4,3v2l4,3v2l2,1q0.5,1.5,1,3l6,5.007v2l8,7.011v2l15,14.02,12,13.02h2l6,7.01h2l5,6.009h2q1.5,2,3,4.006h2q1,1.5,2,3h2l2,3h2l2,3h2l2,3h2q0.5,1,1,2h2l2,3h2q0.5,1,1,2l4,1q0.5,1,1,2h2q0.5,1,1,2h2q0.5,1,1,2l4,1q0.5,1,1,2h2q0.5,1,1,2l6,2c14.775,9.294,30.884,16.932,48.013,24.036v-3h-1q-0.5-2.5-1-5.007h-1v-2h-1v-2h-1v-3h-1v-2h-1q-0.5-2.5-1-5.008h-1q-0.5-3-1-6.009h-1v-2h-1v-3h-1v-2h-1v-4.006h-1v-2h-1q-0.5-2.5-1-5.008h-1v-4.006h-1v-2h-1v-4h-1v-2h-1v-4.006h-1v-3h-1v-4.006h-1v-2h-1q-2-9.012-4-18.027h-1v-3h-1q-0.5-3.505-1-7.01h-1V812.9h-1q-0.5-4.007-1-8.012c-1.226-3.611-2.688-7.144-3-12.018l-4-1v-1h-5v-1h-4v-1h-6v-1h-3v-1h-5v-1h-3v-1l-20-4.006v-1l-10-2v-1l-7-1v-1h-3v-1h-4v-1h-2v-1h-4v-1h-2v-1h-4v-1h-2v-1h-4v-1h-2v-1h-4v-1h-2v-1h-4v-1h-2v-1h-3v-1h-2v-1h-3v-1h-2v-1h-3v-1l-5-1v-1h-2v-1h-3v-1l-4-1v-1h-3v-1h-2v-1l-4-1v-1h-3v-1l-9-3q-0.5-1-1-2Z" transform="translate(-13.625 -9.219)" />
  <path style="fill:#e26c59"  d="M819.522,603.037a14.848,14.848,0,0,1,3.966.85h1.7c2.143,0.66,4.944,1.029,7.083,1.7l4.25,0.567c4.407,1.393,9.755,1.734,14.167,3.116l8.5,1.416c1.677,0.529,3.983.9,5.667,1.416h1.7c6.238,1.915,13.608,2.3,19.834,4.248h1.416c1.68,0.53,3.986.891,5.667,1.417l22.951,4.248c3.957,1.247,8.79,1.6,12.751,2.833l2.833,0.283c2.6,0.817,5.9,1.171,8.5,1.982l2.834,0.284c1.677,0.528,3.983.905,5.667,1.416l3.116,0.283c1.68,0.529,3.986.891,5.667,1.416h1.417v0.283h1.417v0.284h1.416v0.283h1.417v0.283h1.417c5.766,1.816,12.645,2.163,18.417,3.966l4.25,0.566c4.5,1.417,9.97,1.717,14.446,3.116q3.555,0.565,7.09,1.133v0.283h1.42v0.283h1.41v0.283h1.42v0.283h1.42c5.31,1.669,11.66,2.069,17,3.683l3.11,0.283v0.283l2.84,0.283v0.284l2.83,0.283v0.283h1.42v0.283h1.13v0.283l1.98,0.284v0.283h0.85v0.283l1.7,0.283v0.284h0.57v0.283h0.85v0.283c0.57,0.189,1.13.378,1.7,0.567v0.283h0.57v0.283c0.56,0.189,1.13.378,1.7,0.567,0.09,0.188.19,0.377,0.28,0.566,0.38,0.094.76,0.189,1.13,0.283,0.1,0.189.19,0.378,0.29,0.567h0.56l0.57,0.849h0.57c0.19,0.284.37,0.567,0.56,0.85h0.57c0.28,0.378.57,0.755,0.85,1.133h0.57c0.28,0.378.56,0.755,0.85,1.133l2.55,2.266V659.4l1.41,1.133c0.1,0.284.19,0.567,0.29,0.85,0.19,0.094.37,0.189,0.56,0.283v0.567l0.57,0.283v0.566l0.57,0.284c0.09,0.377.19,0.755,0.28,1.133l0.57,0.283c0.19,0.566.37,1.133,0.56,1.7h0.29v0.567h0.28l0.57,1.7h0.28v0.85h0.28v0.566h0.29c0.19,0.85.38,1.7,0.56,2.55H1070v1.132h0.28v1.133h0.28v1.133h0.29v1.7h0.28v1.982h0.28V936.973c0,3.328.18,7.1-.56,9.63v1.7h-0.29v1.133h-0.28v1.133H1070v0.849h-0.29v1.133h-0.28v0.567h-0.28c-0.1.566-.19,1.133-0.29,1.7h-0.28v0.567h-0.28v0.849h-0.29c-0.19.567-.37,1.133-0.56,1.7h-0.29c-0.09.377-.19,0.755-0.28,1.133l-0.57.283c-0.09.378-.19,0.755-0.28,1.133l-0.57.283v0.567h-0.28c-0.09.283-.19,0.566-0.28,0.849l-0.57.284v0.566c-0.28.189-.57,0.378-0.85,0.566v0.567c-0.57.472-1.13,0.944-1.7,1.416v0.567l-1.98,1.7-0.57.85h-0.57l-1.41,1.7h-0.57l-0.57.85h-0.56c-0.1.189-.19,0.378-0.29,0.566h-0.56c-0.1.189-.19,0.378-0.29,0.567-0.28.094-.56,0.189-0.85,0.283v0.283c-0.37.1-.75,0.189-1.13,0.284-0.09.188-.19,0.377-0.28,0.566l-1.14.283v0.283c-0.56.189-1.13,0.378-1.7,0.567v0.283h-0.85v0.283h-0.56v0.284c-0.57.094-1.14,0.188-1.7,0.283v0.283h-0.57v0.283h-1.13v0.284h-0.85v0.283h-1.14v0.283h-1.13v0.283h-1.7c-2.54.741-6.3,0.567-9.63,0.567H509.544c-3.647,0-7.947.261-10.767-.567h-1.7v-0.283h-1.134v-0.283H494.81V976.91h-0.85v-0.284h-1.133v-0.283H492.26V976.06l-1.7-.283v-0.284h-0.567V975.21h-0.85v-0.283l-1.7-.567v-0.283l-1.133-.283c-0.1-.189-0.189-0.378-0.284-0.566l-1.133-.284-0.283-.566h-0.567V972.1l-0.85-.284-0.283-.566h-0.567l-0.567-.85H481.21q-0.709-.849-1.417-1.7h-0.567l-1.7-1.983-0.85-.566V965.58l-1.7-1.416V963.6l-0.85-.566v-0.566l-0.567-.284v-0.566l-0.566-.283c-0.095-.284-0.189-0.567-0.284-0.85h-0.283q-0.141-.567-0.283-1.133l-0.567-.283q-0.141-.567-0.283-1.133h-0.284q-0.284-.851-0.566-1.7h-0.284v-0.849h-0.283v-0.567h-0.283q-0.143-.849-0.284-1.7h-0.283v-0.567h-0.283v-1.133h-0.284v-0.849h-0.283v-1.133h-0.284V948.3h-0.283V408.737h0.283V407.6h0.284v-1.133h0.283v-0.85h0.284v-1.133h0.283v-0.849h0.283v-0.567h0.284v-0.849h0.283v-0.567h0.283v-0.85h0.284q0.282-.849.566-1.7h0.284q0.141-.567.283-1.133l0.567-.283q0.141-.567.283-1.133l0.567-.283v-0.567h0.283c0.094-.283.189-0.566,0.283-0.85l0.567-.283v-0.566l1.133-.85v-0.566l2.834-2.55,2.267-2.549h0.566q0.426-.566.85-1.133h0.567l0.567-.849h0.566l0.284-.567h0.566c0.095-.189.189-0.378,0.284-0.566l1.133-.284q0.143-.282.283-0.566l1.7-.567v-0.283h0.566V382.4l1.7-.566v-0.284l7.367-2.266h1.7c3.694-1.061,10.429-.733,13.884.284h1.7v0.283h1.984v0.283h1.7v0.283l3.966,0.284c3.342,0.985,7.7,1,11.051,1.982h1.983c3.971,1.173,9.044,1.087,13.034,2.266l3.683,0.283v0.284h1.7V385.8h1.983v0.283h1.983c4.506,1.333,10.224,1.226,14.734,2.549l3.684,0.283v0.284h1.983v0.283H580.1v0.283h1.7v0.283l7.65,0.85v0.283h1.7v0.284h1.983v0.283h1.7c3.985,1.188,9.061,1.1,13.034,2.266l3.684,0.283v0.283h1.983v0.283h1.983v0.284h1.7v0.283l7.651,0.85c4.509,1.335,10.209,1.221,14.734,2.549l3.683,0.283v0.283l3.967,0.283c4.509,1.335,10.21,1.222,14.734,2.55l5.667,0.566c3.347,0.991,7.706,1,11.05,1.983l3.967,0.283c2.723,0.806,6.341.9,9.067,1.7l3.967,0.284c2.185,0.647,5.159.773,7.367,1.416h1.983c1.535,0.454,3.847.682,5.383,1.133h1.984v0.283h1.7v0.283H716.1v0.283h1.984c4.509,1.335,10.209,1.222,14.734,2.55l3.683,0.283v0.283h1.983c2.205,0.648,5.18.775,7.367,1.416h1.984c3.347,0.99,7.706,1,11.05,1.983l3.967,0.283c4.511,1.332,10.208,1.225,14.734,2.549h1.983v0.283h1.7v0.284h1.984v0.283l6.8,0.85,7.084,2.266v0.283l1.7,0.566v0.284l1.7,0.566c0.094,0.189.189,0.378,0.283,0.566l1.133,0.284c0.1,0.188.189,0.377,0.284,0.566H802.8v0.283l0.85,0.284c0.1,0.188.189,0.377,0.284,0.566H804.5l0.85,1.133h0.567l1.417,1.7h0.567l1.133,1.417,0.567,0.283V433.1l1.7,1.417v0.566l1.133,0.85v0.566l0.567,0.283v0.567l0.566,0.283c0.1,0.283.189,0.567,0.284,0.85h0.283q0.142,0.566.283,1.133l0.567,0.283,0.284,1.133h0.283v0.566h0.283l0.567,1.7h0.283v0.85h0.284v0.566h0.283v0.85h0.283v0.849h0.284v0.85h0.283q0.141,0.992.283,1.983h0.284v1.416h0.283v1.416h0.283v1.7h0.284V603.037ZM567.629,953.118V844.355q0.143-4.815.284-9.63H568.2q0.141-1.558.283-3.116h0.284q0.141-1.133.283-2.266h0.283v-0.849h0.284v-0.85H569.9v-0.85h0.283v-0.85a55.948,55.948,0,0,1,6.234-10.479l2.267-1.983,2.55-2.832H581.8q0.425-.567.85-1.133h0.566l0.284-.567h0.566l0.567-.849,1.133-.284c0.095-.188.189-0.377,0.284-0.566l1.7-.567c0.094-.188.189-0.377,0.283-0.566H588.6v-0.283h0.566v-0.284l8.5-2.832h1.7c4.241-1.234,10.971-.566,16.15-0.566H685.5v0.283h1.984v0.283H688.9V803h1.134v0.284h1.133v0.283H692.3l7.367,3.115,0.284,0.567,1.133,0.283q0.143,0.283.283,0.567h0.567q0.143,0.282.283,0.566h0.567l0.567,0.85h0.567c0.094,0.189.188,0.377,0.283,0.566l0.85,0.283,1.417,1.7h0.566q0.709,0.849,1.417,1.7l0.567,0.284v0.566l1.7,1.416V816.6l0.85,0.566v0.567l0.85,0.566v0.567l0.567,0.283q0.141,0.565.283,1.133l0.567,0.283q0.282,0.849.566,1.7h0.284v0.567h0.283V823.4h0.283l0.567,1.7H716.1v0.849h0.284v0.567h0.283l0.567,2.549h0.283v1.133c1.454,4.329,1.417,9.663,1.417,15.578V953.118H794.3V465.384c0-3.045.548-8.019-.283-10.479l-1.984-3.966-0.85-.566v-0.567l-0.85-.566v-0.283h-0.566l-0.85-1.133-1.134-.284v-0.283l-1.7-.566v-0.284h-0.85v-0.283H783.82v-0.283l-5.666-.566v-0.284h-1.7v-0.283H774.47v-0.283h-1.983c-3.986-1.172-9.035-1.105-13.034-2.266l-3.684-.283v-0.284l-7.65-.849c-3.969-1.173-9.061-1.1-13.034-2.266l-3.683-.283V437.91l-3.967-.283c-4.567-1.351-10.431-1.193-15.017-2.549l-3.684-.283c-3.967-1.175-9.061-1.1-13.033-2.266h-1.984c-2.163-.641-5.2-0.781-7.367-1.416h-1.983c-2.164-.641-5.2-0.781-7.367-1.416h-1.983v-0.284h-1.984V429.13h-1.7v-0.283H669.35v-0.283h-1.7V428.28h-1.984V428h-1.983c-3.982-1.179-9.037-1.1-13.034-2.266l-3.683-.283v-0.283L643,424.882c-4.5-1.335-10.224-1.226-14.734-2.55h-1.984v-0.283H624.3v-0.283h-1.7v-0.283l-3.967-.284c-3.34-.989-7.7-1-11.05-1.982l-3.967-.283c-3.34-.989-7.7-1-11.05-1.983H590.58c-2.205-.648-5.18-0.774-7.367-1.416H581.23v-0.284h-1.984v-0.283h-1.7v-0.283h-1.983V414.4h-1.7v-0.283H571.88v-0.284H569.9c-3.983-1.177-9.037-1.1-13.034-2.266l-3.683-.283V411l-3.967-.283c-3.342-.985-7.7-1-11.05-1.983l-3.967-.283c-5.143-1.508-11.553-1.338-16.717-2.833l-5.667-.566v-0.283h-1.984c-1.9-.552-4.547-1.242-6.8-0.567H501.61a14.033,14.033,0,0,0-9.067,9.064c-0.788,2.352-.283,7-0.283,9.913V934.991c0,4.866-.189,9.2,1.7,12.179l0.567,0.283v0.566l1.416,1.133,1.417,1.7h0.567c0.094,0.189.189,0.377,0.283,0.566h0.567V951.7l1.133,0.283v0.283l1.7,0.283v0.283l5.384,0.284h60.635ZM553.462,499.939h40.8c6.651,0,14.393-.678,18.417,1.983,2.428,1.606,5.355,5.615,5.383,9.63v3.682c-1.333,4.423-3.916,7.632-7.933,9.347-2.773,1.183-8.963.566-12.751,0.566H569.329c-7.2,0-17.262,1.021-21.534-1.982q-0.424-.567-0.85-1.133h-0.566l-0.567-.567V520.9l-1.133-.85v-0.566l-0.567-.284q-0.142-.565-0.283-1.133h-0.284v-0.849h-0.283v-0.85h-0.284v-0.85H542.7v-1.982h-0.283v-1.7H542.7v-1.983h0.283V508.72h0.284v-0.85h0.283q0.143-.567.284-1.133h0.283q0.141-.567.283-1.133l0.85-.567v-0.566l1.7-1.416,0.284-.567h0.566c0.1-.188.189-0.377,0.284-0.566l1.7-.567v-0.283h0.566v-0.283h0.85v-0.283h0.85v-0.284h1.417v-0.283Zm126.088,0H733.1l4.533,1.416v0.284l0.85,0.283c0.1,0.189.189,0.378,0.284,0.566h0.566l0.567,0.85,1.7,1.416v0.567l0.567,0.283c0.094,0.283.189,0.566,0.283,0.85h0.284q0.141,0.708.283,1.416H743.3v0.566h0.284v1.133c0.314,0.959,1.023,2.942.566,4.532h-0.283v1.7a13.634,13.634,0,0,1-9.634,9.347H678.417v-0.283h-1.134v-0.283h-0.85V524.3l-1.7-.567v-0.283h-0.567q-0.141-.283-0.283-0.567h-0.567l-0.85-1.133-1.7-1.416v-0.566l-0.566-.283v-0.567h-0.284q-0.141-.567-0.283-1.133H669.35c-0.455-1.04-1.377-5.563-.85-7.364h0.283V509h0.283v-0.85h0.284q0.283-.849.566-1.7H670.2q0.141-.567.283-1.133l1.133-.85v-0.566H671.9l0.566-.85h0.567l0.567-.85h0.566c0.095-.189.189-0.378,0.284-0.566h0.567v-0.284l1.133-.283v-0.283H677v-0.283h0.85v-0.284h1.7v-0.283ZM552.9,575.563h41.368c7.184,0,14.752-.726,18.984,2.266q0.424,0.567.85,1.133l1.7,1.416v0.567a10.005,10.005,0,0,1,2.266,6.514v3.4h-0.283v1.133H617.5v0.85h-0.284q-0.282.849-.566,1.7h-0.284v0.567l-0.566.283v0.566l-1.7,1.417-0.567.849h-0.567l-0.283.567h-0.567c-0.094.189-.189,0.377-0.283,0.566h-0.567v0.283H610.7v0.284c-3.1,1.36-8.957.849-13.318,0.849H569.329c-7.72,0-17.256.96-21.817-2.265l-0.85-1.133-1.7-1.417V595.39l-0.567-.283q-0.141-.567-0.283-1.133h-0.283q-0.142-.567-0.284-1.133h-0.283v-0.85a10.421,10.421,0,0,1,0-7.647,13.57,13.57,0,0,1,.567-2.266l0.566-.283v-0.567l0.567-.283v-0.567l3.4-3.115h0.567V576.98l1.133-.284v-0.283l1.7-.283v-0.283H552.9v-0.284Zm125.8,0h41.368c6.758,0,14.627-.746,18.7,1.983l0.85,1.133h0.567v0.283l0.85,0.567V580.1l0.85,0.567v0.566l0.566,0.283c1.109,1.755,2.331,6.769,1.417,9.63h-0.283q-0.143.992-.284,1.983h-0.283l-0.567,1.7a17.987,17.987,0,0,1-2.833,2.833l-0.567.85h-0.567q-0.141.282-.283,0.566l-1.7.566v0.284c-3.281,1.433-9.064.849-13.6,0.849H695.134c-7.3,0-16.785.992-21.251-1.982l-0.567-.85H672.75c-0.1-.189-0.189-0.378-0.284-0.566q-0.565-.426-1.133-0.85v-0.567l-0.85-.566v-0.567l-0.567-.283c-0.694-1.1-2.127-6.423-1.416-8.78h0.283v-1.133h0.283v-0.85h0.284v-0.849h0.283v-0.567h0.283v-0.566l0.567-.284v-0.566l0.567-.283V580.1l1.7-1.416,0.283-.567H673.6l0.283-.566h0.567c0.094-.189.189-0.378,0.283-0.566Zm140.822,53.249V953.118H1024.1c3.33,0,8.59.541,11.33-.284h1.42v-0.283l1.7-.283v-0.283c0.37-.1.75-0.189,1.13-0.283v-0.284h0.57c0.09-.189.19-0.377,0.28-0.566h0.57c0.37-.472.75-0.944,1.13-1.416,0.57-.472,1.13-0.945,1.7-1.417v-0.566l0.57-.283c1.9-3.009,1.7-7.531,1.7-12.463V691.69c0-5.446.41-11.105-1.7-14.445l-0.57-.283V676.4c-0.28-.189-0.57-0.378-0.85-0.567v-0.566h-0.28c-0.29-.378-0.57-0.756-0.85-1.133h-0.57l-0.57-.85h-0.56c-0.1-.189-0.19-0.378-0.29-0.566-0.37-.1-0.75-0.189-1.13-0.284v-0.283q-4.965-1.133-9.92-2.266h-1.7c-6.7-2.036-14.54-2.5-21.25-4.532h-1.7c-2.14-.655-4.942-1.032-7.082-1.7l-8.5-1.416c-4.033-1.269-9.014-1.577-13.034-2.833l-2.834-.283c-3.048-.96-6.865-1.313-9.917-2.266l-3.116-.283c-2.144-.657-4.944-1.031-7.084-1.7l-2.833-.284c-3.048-.96-6.86-1.338-9.917-2.266h-1.7c-6.7-2.052-14.548-2.5-21.251-4.531l-3.117-.284c-4.862-1.53-10.717-1.878-15.584-3.4l-4.533-.567c-6.242-1.912-13.585-2.353-19.834-4.248h-1.7c-1.683-.515-3.988-0.892-5.667-1.417H865.14c-2.14-.672-4.942-1.031-7.084-1.7H856.64c-1.678-.527-3.983-0.906-5.667-1.416h-1.7c-3.975-1.213-8.783-1.6-12.751-2.833l-2.833-.283v-0.283h-1.417v-0.283h-1.417v-0.284h-1.416v-0.283l-3.117-.283v-0.283ZM554.312,650.9h40.235c6.923,0,14.342-.6,18.417,2.266l0.85,1.133h0.567l2.833,3.965,0.567,2.833h0.283v5.1a20.372,20.372,0,0,1-1.983,4.815l-0.85.567v0.566L614.1,673v0.283h-0.567l-0.567.85H612.4c-0.1.188-.189,0.377-0.284,0.566h-0.566v0.283l-1.134.284v0.283c-2.965,1.285-9.1.85-13.317,0.85H569.9c-7.42,0-17.236,1.046-21.817-1.983l-0.567-.85h-0.567c-0.094-.189-0.189-0.377-0.283-0.566l-1.417-1.133V671.3l-0.566-.283c-0.1-.283-0.189-0.566-0.284-0.85h-0.283a12.989,12.989,0,0,1-1.134-9.346v-1.133h0.284v-0.567h0.283v-0.85h0.284V657.7h0.283v-0.567l0.567-.283v-0.566l0.85-.567v-0.566l1.133-.85V654.02h0.567l0.566-.85h0.567c0.094-.189.189-0.377,0.283-0.566l1.134-.284v-0.283h0.85v-0.283H551.2v-0.283h1.134v-0.283h1.983V650.9Zm125.8,0h40.234c6.552,0,14.153-.65,18.134,1.983l0.567,0.85h0.567q0.708,0.849,1.417,1.7l0.566,0.283v0.567l0.567,0.283,0.567,1.7h0.283v0.567H743.3q0.143,0.849.284,1.7h0.283v1.417h0.283v3.4h-0.283v1.417a13.582,13.582,0,0,1-9.35,9.346c-2.658.862-9.1,0.284-12.467,0.284H695.417c-7.683,0-17.258.957-21.817-2.266L672.75,673l-1.984-1.7v-0.566l-0.566-.283-0.567-1.7H669.35v-0.566h-0.284v-1.133h-0.283v-1.133H668.5c-0.528-1.783.4-6.341,0.85-7.364h0.283q0.141-.567.283-1.133H670.2v-0.567l3.116-3.4h0.567q0.142-.282.283-0.566h0.567l0.284-.567h0.566v-0.283h0.85v-0.283h0.85v-0.283C678.181,651.155,679.484,651.452,680.117,650.9ZM553.179,726.528H607.3l4.534,1.417v0.283l0.85,0.283,0.283,0.567h0.567c0.094,0.188.189,0.377,0.283,0.566l1.7,1.416v0.567l0.85,0.566v0.567h0.284c1.084,1.971,1.427,3.993,1.416,7.081v1.982h-0.283v1.133H617.5v0.85h-0.284q-0.282.849-.566,1.7h-0.284v0.567l-0.566.283v0.566l-1.7,1.417q-0.426.566-.85,1.133h-0.567c-0.094.188-.189,0.377-0.283,0.566l-1.7.567v0.283h-0.567v0.283c-2.747,1.189-8.983.567-12.751,0.567H552.612v-0.284h-1.133V751.17h-0.85v-0.283l-1.7-.567v-0.283h-0.567c-0.094-.189-0.189-0.378-0.283-0.566h-0.567l-0.85-1.133-1.983-1.7q-0.143-.566-0.284-1.133l-0.566-.283v-0.566h-0.284v-0.85h-0.283v-0.85h-0.284v-0.85H542.7v-1.982h-0.283v-1.7H542.7v-1.982h0.283v-1.133h0.284v-0.85h0.283l0.284-1.133h0.283q0.141-.566.283-1.133l0.567-.283v-0.567l3.117-2.832h0.566c0.1-.189.189-0.378,0.284-0.566H549.5v-0.284h0.85v-0.283h0.567V727.1C551.8,726.749,552.529,727.118,553.179,726.528Zm126.088,0h41.084c7.1,0,14.522-.689,18.7,2.266l0.85,1.133,1.984,1.7v0.566l0.566,0.283v0.567h0.284v0.566h0.283v0.85H743.3v0.567h0.284v1.133c0.314,0.959,1.023,2.941.566,4.531h-0.283v1.7h-0.283q-0.143.849-.284,1.7h-0.283v0.567h-0.283q-0.143.566-.284,1.133-0.284.141-.566,0.283v0.566l-0.567.283v0.567q-0.567.424-1.133,0.85c-0.1.188-.189,0.377-0.284,0.566h-0.567l-0.566.85H738.2l-0.283.566-1.134.284v0.283c-3.275,1.438-9.068.85-13.6,0.85H694.851c-6.644,0-16.643.971-20.685-1.7l-0.566-.85h-0.567l-0.567-.849-1.416-1.133v-0.567l-0.85-.566-0.567-1.7H669.35q-0.143-.849-0.284-1.7h-0.283V741.54H668.5v-4.532h0.283q0.141-1.132.283-2.266h0.284v-0.566h0.283v-0.85l0.567-.283q0.141-.567.283-1.133l0.85-.567v-0.566l0.567-.283q0.424-.567.85-1.133h0.566l0.567-.85h0.567v-0.283l1.7-.567v-0.283H677V727.1h0.85v-0.283h1.417v-0.284Zm226.674,0h50.436l5.1,0.284V727.1h0.85v0.283h0.85v0.283h0.566v0.284h0.567c0.1,0.188.189,0.377,0.284,0.566h0.566l0.284,0.567h0.566q0.426,0.566.85,1.133l1.417,1.132c1.8,2.538,3.235,6.909,1.983,10.763v1.133h-0.283v0.85h-0.283l-0.284,1.133h-0.283v0.567l-0.567.283v0.566l-0.85.567v0.566l-0.85.567v0.283h-0.566l-0.85,1.133-1.134.283-0.283.567h-0.85v0.283H962.61v0.283h-0.85v0.283h-1.133c-2.741.866-8.255,0.284-11.617,0.284H920.675c-7.536,0-16.233.881-20.684-2.266l-0.85-1.133-1.7-1.417v-0.566l-0.567-.283q-0.141-.567-0.283-1.133h-0.283q-0.143-.567-0.284-1.133h-0.283v-1.133h-0.283V741.54h-0.284c-0.437-1.479.212-5.9,0.567-6.8h0.283v-0.849h0.284v-0.567h0.283V732.76l0.567-.284V731.91l0.566-.283V731.06l0.85-.566q0.426-.567.851-1.133h0.566l0.567-.85h0.567v-0.283l1.7-.567v-0.283h0.85V727.1h0.85v-0.283h1.416v-0.284Zm-0.566,75.625h41.368c6.769,0,14.63-.764,18.7,1.982q0.425,0.567.85,1.133h0.566v0.283l0.85,0.567v0.566l0.85,0.567c1.192,1.72,2.781,6.04,1.984,8.78v1.7H970.26v0.849h-0.283a14.769,14.769,0,0,1-.567,2.266h-0.283l-0.283.85-0.567.283v0.567l-1.7,1.416-0.567.85h-0.566c-0.095.188-.189,0.377-0.284,0.566h-0.566c-0.1.189-.189,0.378-0.284,0.566h-0.567v0.284h-0.566v0.283c-3.1,1.36-8.957.85-13.317,0.85H922.092c-7.369,0-17,1.015-21.534-1.983l-0.567-.85h-0.566c-0.095-.188-0.189-0.377-0.284-0.566l-1.417-1.133v-0.567l-0.566-.283c-0.1-.283-0.189-0.566-0.284-0.85h-0.283q-0.708-1.981-1.417-3.965c-0.416-1.4.221-6.218,0.567-7.081h0.283l0.567-1.7h0.283v-0.567l0.567-.283v-0.566l0.85-.567,1.7-1.982h0.567l0.283-.567,1.7-.566V803C903.357,802.588,904.738,802.73,905.375,802.153ZM593.13,953.118H693.717V846.9c0-6.51.172-10.892-2.55-14.728l-1.983-1.7-0.284-.566h-0.566l-0.284-.567h-0.566c-0.1-.188-0.189-0.377-0.284-0.566h-0.566v-0.283h-0.567V828.21h-0.85v-0.283h-0.85v-0.283c-2.546-.85-8.921-0.283-12.184-0.283H611.831c-5.086,0-9.929-.269-13.034,1.7l-0.283.567h-0.567l-0.85,1.133-1.7,1.416v0.566l-0.567.283v0.567h-0.283l-0.567,1.7H593.7v0.85h-0.283v1.133H593.13V953.118Zm313.378-75.624h40.235c6.652,0,14.393-.679,18.417,1.982l0.567,0.85h0.567l1.133,1.416,0.567,0.283v0.567l0.85,0.566q0.141,0.567.283,1.133h0.283q0.143,0.567.284,1.133h0.283q0.141,0.851.283,1.7h0.284v1.7a6.134,6.134,0,0,1,.283,2.832h-0.283v1.417H970.26v1.133h-0.283v0.849h-0.283l-0.567,1.7h-0.283v0.566l-0.85.567v0.566l-1.134.85q-0.283.424-.566,0.849h-0.567q-0.143.284-.283,0.567h-0.567l-0.283.566-1.134.284v0.283h-0.567v0.283h-0.85c-3.194,1.21-8.363.85-12.75,0.85H921.242c-7.559,0-16.44.81-20.967-2.266l-1.134-1.416-1.7-1.416V897.32a10.447,10.447,0,0,1-2.267-7.081V887.69h0.284v-1.133h0.283v-0.85h0.283v-0.566h0.284v-0.85l0.566-.283,0.284-1.133,1.133-.85v-0.566h0.283l0.567-.85h0.567l0.567-.85h0.566c0.1-.188.189-0.377,0.284-0.566h0.566V878.91l1.134-.283v-0.284l1.983-.283v-0.283h1.7v-0.283Z" transform="translate(-13.625 -9.219)"/>
</svg>
